<?xml version="1.0" standalone="no"?>
<!DOCTYPE svg PUBLIC "-//W3C//DTD SVG 20010904//EN"
 "http://www.w3.org/TR/2001/REC-SVG-20010904/DTD/svg10.dtd">
<svg version="1.0" xmlns="http://www.w3.org/2000/svg"
 width="1280.000000pt" height="720.000000pt" viewBox="0 0 1280.000000 720.000000"
 preserveAspectRatio="xMidYMid meet">
<metadata>
Created by potrace 1.16, written by Peter Selinger 2001-2019
</metadata>
<g transform="translate(0.000000,720.000000) scale(0.100000,-0.100000)"
fill="#000000" stroke="none">
<path d="M0 7101 c0 -59 4 -102 10 -106 7 -5 8 -11 1 -19 -17 -20 22 -38 46
-21 11 8 23 11 27 8 3 -3 6 12 6 35 0 23 5 42 10 42 6 0 10 6 10 13 0 8 16 12
53 11 28 -1 54 -3 57 -4 17 -8 117 -7 126 1 13 11 74 9 89 -2 6 -4 15 -5 21
-1 14 9 24 62 13 62 -5 0 -9 7 -9 15 0 12 -9 14 -39 10 -36 -4 -39 -3 -45 25
l-5 30 -186 0 -185 0 0 -99z"/>
<path d="M3280 7191 c0 -5 25 -19 55 -32 52 -23 55 -26 55 -61 0 -21 5 -38 10
-38 6 0 10 -8 10 -18 0 -10 5 -23 11 -29 6 -6 12 -74 14 -173 2 -98 8 -167 14
-173 14 -14 14 -107 1 -107 -5 0 -10 -12 -10 -26 0 -14 4 -23 10 -19 6 3 10
15 10 26 0 11 7 19 16 19 11 0 14 -5 9 -17 -4 -10 -10 -27 -13 -38 -3 -11 -12
-26 -19 -33 -7 -7 -14 -34 -14 -60 -1 -26 -3 -39 -6 -29 -3 11 -14 17 -33 17
-30 0 -40 -18 -40 -74 0 -25 -2 -27 -17 -15 -15 13 -16 12 -11 -8 4 -13 3 -23
-1 -23 -11 0 -91 87 -91 99 0 14 13 14 28 -1 8 -8 12 -9 12 -1 0 6 -6 14 -12
16 -10 4 -10 6 0 6 15 1 17 81 2 81 -5 0 -10 -18 -10 -40 l0 -40 -40 0 c-58 0
-60 -20 -11 -79 48 -57 50 -63 16 -48 -13 7 -26 21 -27 32 -2 16 -10 20 -41
18 -20 -1 -37 2 -37 7 0 6 -18 10 -40 10 -22 0 -40 -3 -40 -6 0 -15 22 -44 35
-44 7 0 22 -11 33 -25 18 -23 27 -25 96 -25 l75 0 46 -44 c32 -32 43 -50 39
-63 -5 -15 -4 -15 5 -3 9 13 13 11 32 -8 23 -26 19 -43 -6 -22 -9 7 -19 10
-22 6 -11 -10 19 -27 42 -24 11 2 28 -5 37 -14 27 -27 51 -68 40 -68 -5 0 -17
12 -27 26 -9 14 -19 23 -23 19 -4 -3 0 -10 8 -15 12 -7 12 -12 2 -22 -6 -6
-12 -30 -12 -51 l0 -39 -80 7 c-70 6 -80 5 -80 -9 0 -12 -10 -16 -44 -16 -69
0 -102 -20 -56 -35 11 -3 20 -12 20 -19 0 -7 18 -21 40 -31 22 -10 40 -22 40
-27 0 -11 48 -10 55 2 3 6 10 10 16 10 5 0 9 -4 9 -10 0 -5 -6 -10 -14 -10
-17 0 -9 -88 10 -107 15 -15 84 -18 84 -3 0 6 9 10 20 10 11 0 20 4 20 9 0 13
-34 24 -38 12 -2 -6 -21 -11 -43 -11 -37 0 -39 2 -39 30 0 27 3 30 33 30 58 0
122 -25 125 -49 3 -17 11 -21 45 -23 23 0 51 -1 62 0 18 2 18 0 -4 -18 -27
-23 -20 -40 9 -22 33 20 40 13 14 -13 -14 -14 -41 -32 -61 -40 -31 -13 -34
-13 -29 0 7 18 6 18 -34 1 -20 -8 -28 -16 -21 -20 6 -4 17 -4 24 -1 6 4 -9
-13 -35 -37 -33 -30 -48 -51 -48 -68 1 -22 2 -23 11 -7 9 16 43 16 72 0 14 -8
-25 -30 -87 -47 -32 -10 -68 -23 -80 -31 -12 -7 -39 -16 -60 -20 -22 -4 -49
-13 -60 -21 -26 -18 -63 -18 -116 1 -55 19 -90 19 -118 -1 -34 -23 -14 -39 73
-59 83 -20 81 -15 27 -73 -38 -42 -62 -82 -62 -106 0 -34 21 -42 54 -21 l25
17 -7 -29 c-11 -45 -6 -115 12 -155 9 -21 16 -42 16 -47 0 -5 23 -31 50 -57
l50 -48 0 -74 c0 -68 -3 -79 -37 -136 -36 -57 -38 -65 -35 -130 1 -44 8 -76
17 -86 20 -22 22 -250 2 -250 -7 0 -13 -9 -13 -20 0 -11 6 -20 12 -20 6 0 14
-11 16 -25 4 -19 1 -25 -13 -25 -13 0 -18 6 -16 23 2 17 -4 23 -25 25 -25 3
-28 0 -28 -25 0 -16 5 -34 12 -41 9 -9 9 -15 0 -24 -17 -17 -15 -25 6 -30 22
-6 38 -5 35 3 -1 4 7 9 17 12 11 3 20 1 20 -5 0 -5 13 -7 33 -3 20 4 27 3 19
-3 -10 -7 -10 -11 3 -22 8 -7 15 -19 15 -26 0 -8 5 -14 10 -14 6 0 10 -4 10
-10 0 -21 -25 -8 -62 32 -35 38 -38 39 -38 18 0 -13 7 -32 17 -42 15 -17 15
-18 -3 -18 -16 0 -17 -2 -4 -10 10 -6 11 -10 3 -10 -7 0 -13 -4 -13 -8 0 -9
101 20 133 38 10 6 21 8 26 6 4 -3 62 12 127 33 136 44 190 55 198 43 3 -5
-13 -12 -37 -15 -23 -4 -75 -20 -115 -37 -41 -16 -97 -36 -125 -45 -64 -18
-288 -97 -340 -119 -21 -9 -35 -21 -32 -26 4 -6 21 -3 43 7 49 21 171 55 199
55 13 0 21 4 18 8 -3 5 30 8 72 8 43 0 69 -3 58 -5 -11 -2 -34 -11 -51 -19
-18 -7 -55 -19 -83 -26 -32 -7 -48 -15 -42 -21 6 -6 27 -4 58 6 58 19 157 42
273 62 47 8 105 21 130 29 25 8 77 21 115 30 39 8 135 31 215 50 275 66 440
104 535 125 87 18 268 60 287 67 10 3 18 1 18 -5 0 -5 -15 -12 -32 -16 -72
-14 -74 -16 -47 -31 13 -7 36 -13 52 -14 25 0 27 -3 27 -43 l0 -43 -42 3 -43
2 43 -10 c46 -11 55 -32 20 -44 -22 -8 -22 -8 5 -12 15 -2 27 -9 27 -15 0 -5
10 -19 23 -30 l22 -20 -25 16 c-64 41 -90 51 -110 38 -11 -7 -32 -12 -46 -12
-16 0 -37 -11 -51 -26 -19 -20 -31 -25 -52 -21 -32 7 -123 -17 -101 -26 8 -3
-2 -6 -22 -6 -47 -1 -91 -18 -86 -33 3 -7 20 -21 39 -31 19 -11 36 -23 37 -28
2 -5 15 -9 28 -9 14 0 24 -6 24 -14 0 -7 15 -19 33 -27 17 -7 36 -19 40 -26 4
-7 19 -13 33 -13 14 0 23 -4 19 -9 -3 -6 4 -15 15 -21 11 -6 17 -16 14 -22 -5
-7 -2 -8 5 -4 7 5 21 0 31 -9 11 -10 30 -18 43 -17 24 0 33 -25 14 -39 -4 -3
5 -6 21 -6 17 0 45 -12 68 -30 21 -17 49 -34 62 -38 12 -3 22 -10 22 -14 0 -5
25 -24 55 -42 30 -18 50 -36 44 -40 -7 -4 1 -15 19 -28 34 -23 47 -27 36 -9
-4 6 10 1 32 -12 48 -28 62 -40 48 -40 -6 0 -16 6 -24 13 -8 6 -6 2 4 -11 14
-16 25 -20 40 -16 18 6 19 5 9 -8 -17 -19 -4 -31 15 -15 13 10 15 9 9 -5 -7
-19 24 -35 44 -22 8 4 9 3 5 -4 -4 -6 5 -19 19 -28 14 -9 24 -23 21 -30 -5
-14 15 -24 49 -24 24 0 34 -16 36 -58 1 -27 1 -27 9 3 4 17 8 24 9 18 3 -38
51 11 51 52 0 20 37 37 61 30 20 -7 39 -42 39 -71 0 -19 -30 -18 -58 2 -12 8
-28 14 -35 11 -6 -2 5 -14 26 -27 20 -12 37 -26 37 -31 0 -5 -26 -7 -57 -5
-32 2 -48 1 -35 -1 18 -4 22 -11 22 -44 0 -21 5 -39 10 -39 6 0 10 -18 10 -40
0 -22 -4 -40 -10 -40 -5 0 -10 5 -10 10 0 6 -7 10 -15 10 -8 0 -15 5 -15 10 0
6 7 10 15 10 8 0 15 7 15 15 0 8 -9 15 -20 15 -11 0 -20 -4 -20 -10 0 -17 -29
-11 -70 15 -44 27 -50 30 -50 16 0 -5 9 -13 21 -16 23 -8 59 -40 59 -54 0 -5
12 -12 27 -16 15 -3 33 -15 41 -26 7 -10 23 -19 35 -19 16 0 18 -3 9 -12 -9
-9 -21 -9 -55 0 -23 7 -58 14 -77 16 -74 7 -130 19 -130 26 0 4 -14 6 -32 4
-17 -2 -45 3 -61 11 -33 17 -107 20 -107 6 0 -5 -9 -12 -20 -16 -40 -13 -31
-119 12 -139 10 -5 10 -7 1 -12 -24 -11 -4 -104 22 -104 6 0 27 -9 48 -20 21
-11 42 -18 48 -14 5 3 42 -6 82 -20 73 -26 127 -39 222 -56 28 -5 68 -18 90
-29 21 -12 50 -21 62 -21 13 0 23 -4 23 -9 0 -5 11 -12 25 -15 14 -4 25 -13
25 -21 0 -11 11 -15 40 -15 l40 0 0 -40 c0 -29 4 -40 15 -40 11 0 15 -11 15
-40 l0 -40 40 0 40 0 0 -120 0 -120 30 0 c28 0 30 -2 30 -40 0 -33 -3 -40 -20
-40 -17 0 -20 -7 -20 -39 0 -31 4 -41 20 -46 11 -3 24 -4 29 0 5 3 12 1 16 -5
3 -5 -1 -10 -10 -10 -9 0 -14 -4 -11 -9 4 -5 19 -4 36 2 26 10 28 13 13 19
-12 6 -7 7 15 5 26 -3 32 0 32 15 0 15 8 18 43 18 24 0 70 9 102 20 32 11 68
20 79 19 13 0 8 -4 -14 -11 -19 -5 -39 -14 -44 -19 -6 -5 -16 -9 -24 -9 -8 0
-28 -6 -45 -13 -18 -8 -50 -20 -72 -26 -22 -7 -94 -33 -160 -58 -246 -93 -378
-134 -457 -140 -71 -5 -81 -4 -140 25 -34 16 -76 40 -92 53 -16 13 -45 38 -66
54 -20 17 -49 39 -64 50 -16 11 -43 31 -60 45 -17 14 -38 30 -46 37 -126 99
-241 193 -265 215 -16 15 -34 28 -38 28 -4 0 -18 9 -30 21 -12 12 -49 42 -82
67 -76 58 -196 153 -213 170 -8 7 -30 25 -50 40 -21 15 -42 32 -48 37 -7 6
-35 28 -64 50 -28 22 -64 50 -78 62 -28 24 -52 30 -52 13 0 -18 -23 -10 -64
23 -23 18 -59 45 -81 59 -22 15 -59 46 -83 68 -23 22 -46 40 -50 40 -21 0 -68
74 -64 100 1 9 -31 40 -42 40 -7 0 -19 8 -27 18 -9 9 -38 33 -64 52 -26 19
-63 50 -81 68 -19 17 -37 32 -41 32 -5 0 -33 22 -63 50 -30 28 -60 50 -66 50
-6 0 -17 7 -24 15 -7 8 -20 15 -30 15 -10 0 -21 7 -24 16 -4 10 -13 13 -26 9
-19 -6 -60 18 -113 67 -18 15 -18 16 -1 26 15 8 11 10 -18 9 -33 -1 -44 6
-108 72 -38 40 -68 77 -64 82 3 5 -2 9 -10 9 -9 0 -16 -4 -16 -10 0 -5 -7 -10
-16 -10 -9 0 -23 -8 -30 -17 -12 -16 -13 -16 -14 -1 0 9 6 18 13 21 10 3 10 9
0 26 -7 11 -13 31 -13 43 0 12 -7 29 -15 38 -15 16 -12 20 31 49 27 17 66 36
88 42 66 16 65 19 -4 12 -65 -5 -81 -12 -133 -56 l-28 -24 27 -48 c15 -27 26
-63 26 -80 -2 -32 37 -191 70 -288 11 -32 33 -71 49 -88 16 -16 29 -35 29 -42
0 -7 16 -29 35 -49 23 -26 43 -38 62 -38 42 -1 59 -20 73 -83 9 -36 18 -57 27
-57 10 0 12 -6 8 -19 -3 -10 0 -25 7 -32 23 -25 41 -67 35 -83 -4 -10 1 -20
13 -26 11 -6 22 -25 25 -44 4 -21 18 -42 36 -55 30 -22 41 -55 15 -45 -9 4
-22 -13 -40 -50 -14 -30 -31 -58 -36 -61 -6 -4 -8 -10 -5 -15 3 -4 -4 -10 -15
-13 -12 -3 -20 -14 -20 -26 0 -19 -28 -80 -59 -131 -6 -8 -22 -42 -37 -75 -16
-33 -31 -62 -34 -65 -3 -3 -25 -43 -49 -90 -24 -47 -50 -92 -56 -100 -7 -8
-16 -26 -20 -40 -4 -14 -18 -41 -31 -60 -13 -19 -24 -38 -24 -41 0 -4 -24 -50
-52 -101 -29 -52 -60 -110 -70 -129 -9 -19 -30 -63 -47 -98 -17 -35 -28 -68
-25 -73 7 -11 -13 -54 -33 -76 -7 -7 -25 -40 -40 -73 -16 -32 -32 -57 -38 -56
-5 2 -11 39 -12 83 -1 43 -7 133 -13 199 -13 149 -22 279 -35 510 -3 44 -10
132 -15 195 -10 111 -26 388 -37 615 -3 61 -7 133 -9 160 -16 189 -20 220 -29
219 -5 -1 -14 -9 -20 -19 -11 -20 -34 -49 -78 -99 -15 -17 -38 -49 -50 -71
-22 -38 -23 -46 -16 -150 4 -60 10 -168 14 -240 3 -71 10 -195 15 -275 9 -125
12 -240 9 -315 -1 -25 20 -277 33 -384 2 -21 -5 -31 -22 -31 -11 0 -20 -4 -20
-9 0 -5 8 -8 17 -7 12 1 17 -6 16 -21 0 -13 -1 -36 -2 -52 -1 -27 -3 -28 -25
-18 -17 8 -25 22 -29 51 -3 21 -12 45 -20 54 -12 12 -13 20 -4 39 8 19 8 29
-2 45 -9 15 -10 23 -1 32 8 8 13 7 20 -4 8 -12 10 -11 10 7 0 12 -4 25 -10 28
-5 3 -10 26 -10 50 0 24 -6 50 -14 58 -12 11 -12 19 -3 38 9 17 10 37 3 69 -6
25 -10 245 -11 492 -1 328 -4 451 -13 460 -12 12 -17 4 -24 -37 -2 -11 -16
-26 -31 -33 -16 -8 -27 -21 -27 -33 0 -12 -17 -46 -39 -77 l-38 -57 -1 -687
c-1 -404 2 -688 7 -688 5 0 20 -23 34 -51 l24 -51 21 36 c12 20 26 37 32 37 5
1 16 2 23 3 6 1 12 10 13 21 2 40 5 50 19 69 15 20 15 20 30 0 8 -10 14 -30
13 -44 0 -14 7 -44 15 -67 9 -23 19 -71 22 -105 4 -34 11 -70 16 -80 5 -9 9
-27 8 -40 -1 -50 13 -154 23 -165 6 -7 7 -24 4 -38 -4 -18 -3 -24 6 -23 10 2
14 -33 16 -152 1 -85 7 -179 12 -209 5 -29 7 -58 3 -64 -12 -19 -12 -81 0 -96
7 -8 12 -37 13 -65 1 -28 2 -66 3 -83 l1 -33 155 0 155 0 0 29 c0 17 -4 32
-10 36 -5 3 -7 12 -3 20 6 18 -15 47 -28 39 -5 -3 -9 -1 -9 4 0 6 7 13 16 16
11 4 13 12 8 28 -4 13 -7 33 -6 46 1 14 -4 22 -14 22 -8 0 -12 -4 -9 -10 3 -5
1 -19 -6 -31 -7 -14 -8 -24 -1 -28 6 -4 6 -15 -1 -31 -9 -23 -11 -21 -19 29
-5 35 -5 58 2 65 5 5 10 27 10 47 0 21 6 39 13 42 8 3 2 13 -16 29 -30 27 -32
37 -42 208 -6 119 -13 232 -21 318 -5 67 -4 75 14 88 23 16 97 164 119 237 8
27 24 58 36 68 12 11 36 32 53 47 33 30 75 96 151 242 134 255 178 338 200
372 12 21 24 46 25 55 1 10 4 -31 7 -92 l6 -110 235 -5 c217 -5 235 -6 232
-22 -2 -10 2 -18 8 -18 5 0 10 -6 10 -13 0 -7 8 -22 18 -33 21 -23 39 -94 48
-187 5 -47 11 -67 20 -67 10 0 14 14 15 43 0 23 3 37 5 30 3 -6 1 -60 -5 -120
-5 -59 -6 -109 -2 -111 5 -1 17 -9 27 -17 18 -13 18 -14 -8 -24 -20 -8 -28
-17 -28 -36 0 -14 5 -25 10 -25 6 0 10 -11 10 -25 0 -27 -45 -85 -67 -85 -7 0
-13 -5 -13 -11 0 -6 -7 -18 -16 -26 -10 -10 -14 -26 -11 -42 4 -17 -1 -35 -13
-51 -11 -14 -20 -32 -20 -41 0 -18 -28 -29 -71 -29 -29 0 -78 -34 -67 -45 4
-4 19 0 32 9 31 20 46 20 46 1 0 -8 -6 -15 -14 -15 -18 0 -33 -43 -17 -48 21
-7 11 -38 -20 -67 -33 -28 -28 -44 14 -45 20 0 23 -16 5 -24 -7 -3 0 -2 17 1
16 4 35 12 42 19 20 20 48 25 74 14 24 -10 24 -10 -3 -7 -16 3 -28 0 -28 -5 0
-12 -21 -33 -40 -41 -9 -3 -10 -6 -2 -6 18 -1 15 -38 -4 -45 -13 -5 -14 -9 -4
-21 7 -8 19 -15 26 -15 16 0 19 27 3 32 -6 2 0 18 13 37 27 40 49 52 41 22 -3
-12 2 -27 12 -38 13 -12 14 -18 5 -21 -7 -3 -16 1 -20 8 -10 16 -18 2 -26 -48
-6 -39 -5 -42 17 -42 21 -1 22 -2 7 -11 -22 -12 -24 -48 -3 -55 11 -5 13 -16
9 -44 -5 -31 -2 -41 20 -64 15 -14 31 -26 36 -26 6 0 10 -3 10 -7 -1 -18 -17
-32 -45 -39 -17 -3 -38 -13 -47 -22 -10 -8 -24 -12 -32 -9 -13 5 -46 -21 -46
-37 0 -4 17 -4 38 -1 20 3 31 2 25 -1 -19 -9 -16 -21 7 -27 25 -7 26 -27 1
-34 -21 -5 -35 -29 -26 -44 4 -5 -1 -6 -9 -3 -19 7 -21 24 -4 24 6 0 9 3 5 6
-3 3 -15 3 -26 -1 -17 -5 -18 -10 -9 -35 9 -27 38 -43 38 -21 0 5 16 5 37 1
20 -5 41 -7 45 -4 4 3 8 -2 8 -10 0 -13 60 -15 500 -15 275 0 500 2 500 5 0 2
-9 22 -20 44 -11 22 -20 46 -20 55 0 8 -4 15 -10 15 -5 0 -25 33 -45 74 -37
76 -41 91 -26 81 5 -3 13 0 16 5 9 15 -24 50 -47 50 -13 0 -24 11 -31 30 -6
16 -14 30 -18 30 -4 0 -5 8 -2 19 3 10 0 22 -6 25 -6 4 -8 18 -5 30 3 15 -3
36 -20 62 -29 45 -58 76 -64 70 -6 -7 19 -50 34 -59 8 -4 14 -16 14 -25 0 -10
5 -23 12 -30 7 -7 8 -12 3 -12 -14 0 -37 16 -35 24 1 4 -11 32 -26 63 -18 38
-24 58 -16 61 17 5 15 22 -3 22 -17 0 -35 30 -35 59 0 12 -4 21 -10 21 -5 0
-10 6 -10 14 0 7 -9 25 -20 38 -10 14 -17 28 -13 31 3 3 -9 24 -26 45 -17 22
-31 44 -31 50 0 13 -59 132 -76 152 -15 18 -47 75 -87 155 -17 33 -42 78 -57
100 -15 22 -32 56 -39 76 -6 20 -21 46 -33 59 -15 16 -18 25 -10 28 17 5 15
22 -3 22 -8 0 -15 7 -15 15 0 7 -14 38 -31 67 -16 29 -33 61 -36 71 -3 9 -9
17 -13 17 -4 0 -10 13 -13 29 -3 16 -20 50 -37 77 -16 26 -30 53 -30 59 0 12
-79 167 -89 175 -3 3 -19 32 -36 65 -16 33 -32 62 -35 65 -10 10 -130 256
-130 267 0 6 -6 18 -13 25 -7 7 -33 54 -58 103 -25 50 -70 135 -99 190 -29 55
-67 128 -84 161 -18 34 -37 68 -43 75 -6 8 -14 30 -18 49 -7 34 -7 35 12 17
11 -9 25 -17 31 -17 7 0 12 -11 12 -24 0 -29 19 -44 30 -26 6 9 16 0 34 -28
14 -23 39 -48 56 -57 16 -9 30 -22 30 -30 0 -8 4 -15 8 -15 4 0 34 -25 66 -55
32 -30 67 -57 78 -61 13 -4 18 -12 15 -25 -3 -11 -1 -16 4 -13 15 9 89 -75 82
-94 -4 -13 -3 -14 5 -4 8 12 15 11 41 -2 17 -9 31 -20 31 -25 0 -5 7 -12 16
-15 13 -5 15 -2 11 14 -3 11 -3 20 -1 20 10 0 53 -55 54 -67 0 -7 11 -13 24
-13 19 0 23 -4 19 -20 -4 -15 0 -20 16 -20 11 0 21 -4 21 -10 0 -5 7 -10 15
-10 8 0 15 -6 15 -13 0 -18 55 -69 77 -72 36 -5 63 -18 63 -30 0 -8 6 -20 13
-27 7 -7 18 -25 24 -40 7 -16 17 -28 23 -28 5 0 10 -4 10 -10 0 -24 134 -140
162 -140 9 0 32 -18 52 -40 20 -22 40 -40 45 -40 6 0 23 -17 38 -37 15 -21 33
-44 38 -51 6 -7 19 -21 29 -30 10 -9 32 -30 47 -46 20 -20 35 -27 50 -23 15 4
19 2 15 -9 -7 -19 4 -49 14 -34 4 7 12 0 20 -19 7 -17 17 -31 22 -31 5 0 7 4
4 8 -2 4 5 8 16 8 16 0 19 -5 14 -28 -3 -16 -1 -28 5 -28 6 0 7 4 4 10 -3 5
-2 10 4 10 5 0 11 -6 14 -12 3 -10 8 -9 22 2 17 14 18 13 13 -13 -4 -19 -1
-30 8 -34 9 -3 12 -13 8 -29 -4 -14 -2 -24 4 -24 6 0 14 -9 17 -20 3 -11 11
-20 17 -20 6 0 5 7 -3 18 -7 9 -9 14 -5 10 5 -4 15 -3 23 3 15 13 47 -6 37
-22 -3 -5 3 -9 13 -10 14 0 14 -2 -4 -9 -13 -5 -23 -16 -23 -24 0 -10 -6 -13
-15 -10 -8 4 -15 12 -15 19 0 12 -21 25 -41 25 -15 0 -10 -50 6 -56 8 -4 15
-12 15 -20 0 -18 47 -19 53 -1 3 9 10 9 30 -2 22 -12 27 -21 27 -53 0 -27 -4
-38 -15 -38 -8 0 -15 -7 -15 -15 0 -8 7 -15 15 -15 8 0 15 7 15 15 0 8 5 15
10 15 6 0 10 20 10 43 0 24 3 47 7 50 14 15 33 -18 33 -59 0 -27 6 -49 18 -60
16 -17 17 -17 20 4 3 18 10 22 41 22 28 0 44 -7 65 -29 16 -16 25 -34 22 -40
-5 -7 2 -11 17 -11 23 0 25 -3 20 -40 l-6 -40 42 0 41 0 0 -57 c0 -48 5 -62
24 -81 13 -12 31 -22 40 -22 13 0 16 -13 16 -80 l0 -80 40 0 40 0 0 -120 c0
-113 -1 -120 -20 -120 -11 0 -20 -4 -20 -10 0 -5 7 -10 15 -10 8 0 18 -16 24
-37 11 -40 7 -59 -4 -23 -9 29 -36 60 -52 60 -7 0 -13 5 -13 10 0 15 -84 12
-106 -4 -18 -14 -18 -15 -1 -21 9 -4 17 -13 17 -21 0 -19 -36 -18 -44 1 -3 8
-12 15 -21 15 -11 0 -15 -12 -16 -42 l-1 -43 -8 38 c-4 20 -10 40 -13 43 -9 9
-27 -5 -27 -22 0 -8 -9 -14 -21 -14 -22 0 -48 -25 -49 -47 0 -7 9 -13 20 -13
28 0 26 -5 -20 -46 -37 -34 -53 -74 -30 -74 6 0 10 -9 10 -20 0 -11 -4 -20
-10 -20 -5 0 -10 5 -10 10 0 6 -18 10 -40 10 -33 0 -40 3 -40 20 0 15 7 20 25
20 14 0 25 5 25 10 0 6 -6 10 -14 10 -8 0 -17 6 -20 13 -5 9 -7 9 -12 -1 -5
-10 -9 -9 -19 5 -13 17 -14 17 -29 -2 -15 -20 -15 -20 -16 2 0 12 6 23 13 26
9 3 9 7 1 18 -6 8 -17 31 -23 52 -7 20 -21 42 -31 47 -11 6 -17 17 -14 25 4 9
0 15 -9 15 -10 0 -17 11 -19 28 -3 23 -8 27 -40 30 -30 3 -38 7 -38 23 0 10
-4 19 -10 19 -5 0 -10 -9 -10 -20 0 -11 5 -20 10 -20 6 0 10 -10 10 -22 0 -12
18 -37 42 -60 23 -21 36 -38 30 -38 -7 0 -12 -15 -12 -35 0 -23 5 -35 13 -34
28 3 32 -3 29 -46 -3 -36 -8 -45 -23 -45 -14 0 -19 -7 -19 -30 0 -35 23 -41
40 -10 6 11 17 20 25 20 7 0 16 10 18 23 4 21 4 21 6 1 0 -12 14 -31 29 -43
27 -20 29 -26 24 -71 -4 -46 -3 -50 17 -50 11 0 21 5 21 10 0 6 -4 10 -10 10
-5 0 -10 14 -10 30 0 17 5 30 10 30 6 0 10 -11 10 -25 0 -18 5 -25 20 -25 15
0 20 7 20 25 0 18 5 25 20 25 11 0 20 5 20 10 0 6 9 10 20 10 11 0 20 -4 20
-10 0 -6 33 -10 78 -11 42 -1 70 -3 60 -6 -31 -8 -33 -63 -2 -63 8 0 14 -4 14
-9 0 -4 -11 -6 -25 -3 -20 3 -25 0 -25 -16 0 -11 6 -22 13 -25 10 -4 10 -7 0
-18 -16 -17 -17 -71 -1 -87 9 -9 5 -12 -20 -12 -31 0 -32 2 -32 40 0 33 -3 40
-20 40 -13 0 -20 7 -20 20 0 13 -7 20 -20 20 -13 0 -20 7 -20 20 0 13 -7 20
-19 20 -11 0 -21 6 -24 13 -2 7 -8 8 -13 3 -5 -5 -4 -11 4 -13 6 -3 12 -13 12
-24 0 -12 7 -19 20 -19 13 0 20 -7 20 -20 0 -11 5 -20 12 -20 9 0 9 -3 0 -12
-9 -9 -15 -9 -24 0 -16 16 -125 16 -132 0 -5 -11 -7 -11 -12 0 -3 6 -10 12
-16 12 -16 0 1 -72 23 -96 10 -11 19 -26 19 -32 0 -20 -20 -13 -30 11 -6 12
-15 31 -22 42 -7 11 -19 31 -26 44 -11 19 -16 21 -23 10 -14 -23 -10 -49 12
-72 11 -12 25 -32 30 -44 l8 -23 228 3 228 2 6 40 6 40 2 -42 1 -43 71 0 c77
0 98 12 99 58 0 12 5 22 11 22 6 0 8 -9 5 -20 -3 -11 -9 -29 -12 -40 -5 -19
-1 -20 120 -20 l125 0 11 58 c7 31 23 109 37 172 14 63 29 135 33 160 5 25 21
97 35 160 15 63 30 135 35 160 5 25 16 79 25 120 9 41 21 95 26 120 5 25 12
52 16 60 3 8 7 26 9 40 1 14 12 65 24 115 11 49 23 101 25 115 14 91 30 160
37 160 4 0 8 -11 8 -25 0 -45 27 -28 36 23 5 31 9 39 12 25 2 -13 8 -23 13
-23 5 0 9 -18 9 -40 0 -22 -4 -40 -10 -40 -5 0 -10 -18 -10 -40 0 -38 2 -40
30 -40 28 0 30 -2 30 -40 0 -22 5 -40 10 -40 6 0 10 -13 10 -30 0 -28 2 -30
40 -30 l40 0 0 -90 0 -90 50 0 50 0 0 -40 c0 -38 2 -40 30 -40 l30 0 0 -80 0
-80 40 0 40 0 0 -40 0 -40 -40 0 -40 0 0 -40 0 -40 40 0 40 0 0 -40 0 -40 40
0 40 0 0 -40 0 -40 40 0 40 0 0 -160 0 -160 40 0 40 0 0 -40 0 -40 3000 0
3000 0 0 3600 0 3600 -4760 0 c-2719 0 -4760 -4 -4760 -9z m4210 -1421 c0 -5
11 -10 25 -10 29 0 30 -10 13 -75 -7 -25 -18 -45 -24 -45 -7 0 -16 -9 -19 -20
-3 -11 -14 -20 -24 -20 -61 0 -66 146 -7 170 29 12 36 12 36 0z m310 -320 c29
-15 43 -79 25 -107 -21 -32 -87 -33 -109 -1 -22 31 -20 68 6 95 23 25 48 29
78 13z m-4360 -3130 c0 -5 7 -10 15 -10 20 0 19 -19 -1 -27 -13 -5 -12 -9 8
-27 27 -23 41 -50 42 -81 0 -11 11 -30 23 -43 27 -27 26 -23 13 -56 -7 -21 -5
-34 11 -63 20 -35 20 -39 5 -70 -12 -24 -12 -34 -3 -40 20 -12 -31 -21 -125
-22 l-88 -1 0 149 0 148 43 76 c39 71 57 92 57 67z m565 -1114 c17 -17 20 -83
4 -88 -15 -5 0 -58 17 -58 8 0 14 -4 14 -9 0 -9 -97 -5 -128 5 -7 2 -12 12
-10 21 1 10 -1 24 -5 31 -5 6 -4 12 1 12 6 0 4 19 -4 45 -13 44 -12 46 9 55
29 13 83 5 102 -14z"/>
<path d="M945 7071 c-23 -23 -138 -31 -220 -16 -125 22 -178 20 -206 -10 -13
-13 -30 -25 -36 -25 -20 0 -15 -18 7 -25 11 -3 20 -13 20 -21 0 -8 3 -14 8
-14 4 0 16 -17 27 -37 11 -21 23 -40 27 -43 4 -3 17 -42 28 -87 21 -80 21 -83
5 -128 -19 -49 -37 -59 -96 -53 -26 2 -39 12 -60 42 -14 22 -37 43 -49 48 -24
9 -24 14 -3 -72 16 -64 11 -69 -78 -68 -43 0 -77 4 -74 8 3 4 -13 8 -35 8 -22
0 -42 -3 -45 -9 -4 -5 -18 -9 -33 -9 -15 0 -39 -6 -53 -14 -15 -7 -32 -10 -39
-6 -33 21 -40 0 -40 -121 0 -102 2 -119 16 -119 8 0 23 -7 31 -16 10 -10 25
-13 40 -9 15 3 34 0 49 -10 27 -17 32 -35 9 -35 -21 0 -19 -12 5 -33 19 -16
23 -16 42 -3 22 16 48 11 48 -9 0 -7 6 -15 13 -18 7 -2 22 -23 32 -46 11 -22
26 -41 33 -41 7 0 10 -4 7 -10 -3 -5 -15 -10 -26 -10 -11 0 -18 4 -15 9 12 19
-48 28 -74 11 -12 -7 -11 -12 5 -30 30 -34 54 -43 71 -29 11 9 14 8 14 -3 0
-19 37 -58 56 -58 8 0 21 15 29 34 14 32 17 34 72 38 32 2 59 3 61 2 9 -5 -13
-33 -29 -37 -11 -3 -23 -14 -26 -25 -4 -19 -12 -20 -94 -16 -51 2 -89 -1 -89
-6 0 -5 19 -19 42 -31 53 -26 77 -55 78 -91 0 -36 -31 -38 -53 -5 -12 19 -22
23 -49 20 -27 -3 -30 -2 -15 7 23 15 22 42 -4 63 -19 17 -59 16 -59 -2 0 -3
-13 -15 -30 -24 -17 -10 -30 -13 -30 -8 0 6 -7 11 -15 11 -8 0 -15 7 -15 15 0
8 -4 15 -10 15 -5 0 -10 8 -10 17 0 9 -8 25 -17 35 -10 12 -16 32 -15 53 2 18
-2 36 -8 40 -21 13 -11 52 18 63 15 6 36 14 47 18 11 4 25 6 30 5 6 -1 4 3 -3
10 -7 8 -38 16 -70 20 -31 3 -65 9 -75 14 -16 7 -17 -12 -17 -319 l0 -326 27
-32 c16 -18 52 -57 80 -87 29 -30 53 -58 53 -63 0 -4 7 -8 16 -8 12 0 14 -7 9
-32 -4 -18 -12 -40 -19 -50 -8 -13 -7 -26 1 -49 10 -25 9 -30 -1 -26 -9 4 -12
0 -9 -12 4 -15 -4 -19 -39 -25 -24 -4 -60 -11 -80 -17 -36 -9 -38 -12 -38 -49
0 -22 5 -40 13 -43 13 -5 59 10 67 22 6 9 85 41 101 41 16 0 89 -82 82 -93 -3
-5 -27 -7 -54 -4 -29 4 -49 2 -49 -3 0 -6 15 -10 33 -11 17 0 47 -2 66 -5 29
-4 32 -2 21 11 -7 8 -8 15 -3 15 5 0 7 14 5 31 -3 21 -1 30 6 25 6 -3 18 1 27
11 13 13 16 27 11 60 -6 49 2 54 35 18 39 -41 73 -31 49 14 -7 14 -5 23 9 35
11 10 25 31 32 48 11 27 10 32 -7 45 -24 17 -27 51 -5 49 25 -2 25 46 1 77
-26 33 -85 60 -112 51 -35 -11 -68 4 -68 31 0 20 5 25 28 26 15 1 31 1 37 -1
5 -1 24 1 42 5 28 5 33 10 33 33 0 16 -5 33 -11 39 -6 6 -9 19 -7 29 2 11 -3
26 -12 35 -23 25 -118 69 -148 69 -53 0 -6 18 60 23 47 3 71 1 78 -8 5 -6 7
-15 3 -18 -3 -4 -1 -7 5 -7 7 0 12 -9 12 -20 0 -11 6 -20 13 -20 8 0 33 -13
55 -30 36 -26 51 -30 104 -30 62 0 168 21 223 44 76 32 96 38 120 32 25 -6 36
-36 13 -36 -12 -1 -78 -81 -78 -95 0 -3 7 -5 15 -5 8 0 14 5 12 12 -1 6 6 14
16 16 14 3 17 -2 14 -20 -2 -13 -2 -17 0 -10 3 6 9 12 14 12 5 0 6 12 3 28 -5
21 -4 25 6 15 9 -9 23 -5 60 15 53 30 85 65 95 105 6 22 3 28 -18 36 -39 15
-43 32 -14 55 22 17 24 23 13 31 -11 8 -16 52 -21 185 -6 169 -5 175 15 188
12 7 31 10 46 6 23 -6 25 -4 20 14 -9 28 26 95 61 119 23 16 35 18 67 11 22
-5 45 -13 53 -19 9 -8 13 -8 13 0 0 6 7 11 15 11 8 0 15 -5 15 -11 0 -5 5 -7
11 -3 8 5 8 8 0 13 -14 9 -13 139 1 147 21 13 -18 23 -66 18 -27 -3 -69 -3
-93 1 -39 6 -43 9 -43 33 1 34 21 62 46 62 41 0 46 17 11 34 -19 9 -39 16 -45
16 -12 0 -19 26 -27 113 -4 38 -17 88 -29 112 -23 46 -80 112 -114 133 -26 14
-26 14 -37 3z"/>
<path d="M80 6915 c0 -8 5 -15 12 -15 6 0 1 -9 -11 -19 -23 -20 -21 -41 5 -41
8 0 14 10 14 22 0 21 1 21 14 3 19 -26 122 -38 144 -16 14 15 15 14 9 -3 -12
-32 51 -78 72 -52 11 13 4 56 -9 56 -4 0 -17 9 -30 20 -24 21 -38 24 -65 14
-13 -5 -14 -8 -3 -15 10 -7 10 -9 -2 -8 -23 1 -58 17 -40 19 21 1 -18 23 -49
28 -14 2 -33 8 -43 13 -14 7 -18 6 -18 -6z"/>
<path d="M121 6743 c0 -32 5 -74 12 -93 11 -31 16 -35 47 -36 54 -1 72 12 65
46 -5 22 -1 31 17 44 21 15 21 16 3 17 -11 1 -23 1 -27 0 -4 0 -5 6 -2 14 4 9
0 15 -10 15 -9 0 -16 6 -16 13 0 12 -52 37 -78 37 -8 0 -12 -20 -11 -57z"/>
<path d="M1760 6312 c-285 -21 -305 -41 -311 -307 -6 -237 -2 -427 7 -452 11
-26 6 -153 -6 -153 -10 0 -21 51 -26 124 -2 33 -8 64 -14 70 -5 5 -10 31 -10
57 0 67 -10 109 -27 109 -15 0 -13 -36 7 -140 4 -25 14 -79 20 -120 6 -41 16
-94 21 -117 5 -23 6 -55 3 -71 -4 -17 -1 -32 5 -36 19 -12 12 -24 -19 -31 -16
-4 -31 -10 -31 -13 -10 -50 -8 -53 35 -47 54 8 68 -7 68 -75 -1 -35 4 -53 13
-57 8 -3 88 2 177 11 288 28 392 31 418 13 40 -28 48 -74 40 -204 -5 -65 -11
-446 -15 -848 -11 -1183 -11 -1345 0 -1345 6 0 19 15 30 33 10 17 27 43 37 57
75 98 99 138 97 160 -3 50 1 71 12 64 6 -3 9 -15 6 -25 -15 -56 52 9 143 138
l44 63 -18 292 c-46 767 -51 884 -37 893 8 4 14 -1 18 -14 3 -12 9 -21 14 -21
4 0 11 -17 15 -37 4 -21 13 -42 19 -48 7 -5 23 -36 36 -68 12 -31 33 -64 46
-72 12 -9 20 -21 17 -29 -3 -8 7 -40 21 -73 15 -32 33 -72 41 -90 8 -18 19
-35 24 -38 5 -3 17 -23 26 -43 8 -20 20 -45 25 -54 5 -10 9 -24 9 -32 0 -8 7
-17 15 -20 9 -3 15 -11 14 -18 -1 -7 5 -30 14 -50 10 -21 17 -42 17 -49 0 -6
18 4 40 21 l40 31 -20 39 c-11 22 -20 45 -20 51 0 6 -6 17 -13 23 -7 6 -22 31
-32 56 -11 25 -29 57 -41 72 -13 16 -26 38 -29 50 -12 42 -38 93 -53 104 -8 6
-12 16 -8 22 4 7 -3 17 -18 23 -30 14 -42 44 -26 64 9 11 6 17 -13 30 -14 9
-32 34 -41 55 -8 21 -19 41 -25 44 -5 3 -12 24 -16 45 -4 22 -13 45 -20 51 -8
6 -17 25 -20 41 -4 16 -11 29 -16 29 -5 0 -9 6 -9 13 0 6 -9 23 -20 37 -11 14
-20 32 -20 41 0 9 -7 20 -16 23 -8 3 -12 2 -9 -4 3 -6 1 -10 -4 -10 -6 0 -11
11 -11 25 0 14 -6 28 -13 31 -9 3 -14 22 -15 51 0 47 -12 63 -45 63 -14 0 -16
-6 -12 -27 l6 -28 -15 25 c-21 34 -21 61 0 53 12 -4 15 -2 12 8 -3 8 -12 13
-22 11 -10 -2 -16 4 -16 18 0 11 -7 20 -15 20 -8 0 -15 7 -15 15 0 8 -4 15
-10 15 -12 0 -44 69 -36 78 7 6 21 -10 29 -33 3 -5 8 -7 12 -3 9 9 -16 78 -37
102 -9 10 -20 31 -23 47 -10 42 -50 121 -77 150 -22 24 -26 25 -36 10 -9 -14
-12 -11 -17 16 -4 18 -14 38 -21 44 -18 15 -18 27 1 46 18 17 15 49 -3 46 -7
-2 -12 4 -12 12 0 8 -4 15 -10 15 -5 0 -10 7 -10 16 0 13 -3 14 -14 5 -12 -10
-18 -7 -31 19 -9 18 -12 29 -7 26 6 -4 13 -2 17 4 3 5 -1 10 -9 10 -17 0 -29
30 -20 54 4 11 2 15 -8 11 -16 -6 -48 34 -48 60 0 8 -4 15 -10 15 -5 0 -12 12
-16 28 -6 24 -21 59 -100 230 -14 28 -31 52 -38 52 -12 0 -28 81 -28 149 0 14
-7 25 -18 28 -30 8 -36 61 -11 84 12 11 21 25 21 31 0 6 7 20 17 30 9 10 21
28 27 41 11 20 18 22 108 22 89 0 132 9 97 19 -39 11 -118 21 -149 18z"/>
<path d="M1145 5223 c-33 -2 -118 -10 -188 -19 -71 -9 -139 -13 -153 -10 -49
13 -21 -41 34 -63 17 -7 32 -17 32 -22 0 -11 76 -10 110 1 16 6 2 7 -37 3 -41
-4 -63 -2 -63 5 0 6 30 14 66 17 51 6 68 4 75 -6 7 -12 10 -12 18 -1 6 10 39
14 114 16 88 1 109 5 127 21 11 10 20 28 18 39 -3 23 -30 26 -153 19z"/>
<path d="M595 5148 c-45 -31 -58 -64 -38 -94 8 -13 13 -31 9 -39 -6 -16 26
-55 44 -55 5 0 7 -6 4 -13 -9 -24 57 -65 105 -65 31 -1 41 3 38 12 -3 8 -1 18
5 24 13 13 0 72 -17 72 -7 0 -16 7 -19 16 -8 21 -8 22 9 26 13 3 13 6 0 31 -8
15 -13 33 -11 40 1 7 1 9 -1 6 -6 -10 -53 15 -53 28 0 10 -31 34 -42 32 -2 0
-17 -10 -33 -21z"/>
</g>
</svg>
