<svg xmlns="http://www.w3.org/2000/svg" xmlns:xlink="http://www.w3.org/1999/xlink" width="500" zoomAndPan="magnify" viewBox="0 0 375 374.999991" height="500" preserveAspectRatio="xMidYMid meet" version="1.0"><defs><clipPath id="id1"><path d="M 10.808594 74.207031 L 350.496094 74.207031 L 350.496094 348.207031 L 10.808594 348.207031 Z M 10.808594 74.207031 " clip-rule="nonzero"/></clipPath><clipPath id="id2"><path d="M 259 169 L 364.058594 169 L 364.058594 253 L 259 253 Z M 259 169 " clip-rule="nonzero"/></clipPath></defs><g clip-path="url(#id1)"><path fill="#000000" d="M 309.65625 348.207031 L 51.359375 348.207031 C 29 348.207031 10.808594 329.984375 10.808594 307.582031 L 10.808594 114.882812 C 10.808594 95.660156 24.425781 78.925781 43.195312 75.082031 C 45.84375 74.53125 48.597656 74.253906 51.359375 74.253906 L 309.65625 74.253906 C 316.269531 74.253906 322.839844 75.886719 328.652344 78.980469 C 341.949219 86.054688 350.207031 99.8125 350.207031 114.882812 L 350.207031 159.425781 L 340.898438 159.425781 L 340.898438 114.882812 C 340.898438 103.257812 334.53125 92.648438 324.28125 87.191406 C 319.746094 84.777344 314.824219 83.554688 309.65625 83.554688 L 51.359375 83.554688 C 49.230469 83.554688 47.109375 83.769531 45.070312 84.191406 C 30.605469 87.15625 20.113281 100.0625 20.113281 114.882812 L 20.113281 307.582031 C 20.113281 324.855469 34.128906 338.90625 51.359375 338.90625 L 309.65625 338.90625 C 326.882812 338.90625 340.898438 324.855469 340.898438 307.582031 L 340.898438 263.023438 L 350.207031 263.023438 L 350.207031 307.582031 C 350.207031 329.984375 332.015625 348.207031 309.65625 348.207031 " fill-opacity="1" fill-rule="nonzero"/></g><path fill="#000000" d="M 44.429688 84.34375 L 42.566406 75.230469 L 43.90625 74.957031 L 267.351562 28.601562 C 277.867188 26.53125 288.515625 28.675781 297.378906 34.625 C 306.265625 40.597656 312.292969 49.679688 314.347656 60.199219 L 317.875 78.195312 L 308.742188 79.984375 L 305.210938 61.988281 C 303.632812 53.90625 299.011719 46.929688 292.1875 42.347656 C 285.390625 37.78125 277.222656 36.136719 269.199219 37.71875 L 45.78125 84.070312 L 44.429688 84.34375 " fill-opacity="1" fill-rule="nonzero"/><g clip-path="url(#id2)"><path fill="#000000" d="M 300.917969 178.96875 C 283.152344 178.96875 268.695312 193.417969 268.695312 211.183594 L 268.695312 211.277344 C 268.695312 229.039062 283.152344 243.488281 300.917969 243.488281 L 354.75 243.488281 L 354.75 178.96875 Z M 359.402344 252.792969 L 300.917969 252.792969 C 278.019531 252.792969 259.386719 234.167969 259.386719 211.277344 L 259.386719 211.183594 C 259.386719 188.292969 278.019531 169.664062 300.917969 169.664062 L 359.402344 169.664062 C 361.972656 169.664062 364.058594 171.75 364.058594 174.316406 L 364.058594 248.144531 C 364.058594 250.710938 361.972656 252.792969 359.402344 252.792969 " fill-opacity="1" fill-rule="nonzero"/></g><path fill="#000000" d="M 303.285156 201.726562 C 298.058594 201.726562 293.8125 205.988281 293.8125 211.226562 C 293.8125 216.46875 298.058594 220.730469 303.285156 220.730469 C 308.503906 220.730469 312.753906 216.46875 312.753906 211.226562 C 312.753906 205.988281 308.503906 201.726562 303.285156 201.726562 Z M 303.285156 230.035156 C 292.929688 230.035156 284.503906 221.597656 284.503906 211.226562 C 284.503906 200.859375 292.929688 192.421875 303.285156 192.421875 C 313.636719 192.421875 322.058594 200.859375 322.058594 211.226562 C 322.058594 221.597656 313.636719 230.035156 303.285156 230.035156 " fill-opacity="1" fill-rule="nonzero"/><path fill="#000000" d="M 128.859375 204.117188 L 144.441406 204.117188 C 147.410156 204.117188 150.1875 203.007812 152.265625 200.992188 C 154.316406 199.011719 155.4375 196.386719 155.4375 193.605469 C 155.4375 187.652344 150.34375 182.429688 144.515625 182.382812 L 128.859375 182.933594 Z M 128.859375 239.601562 L 146.15625 240.160156 C 150.421875 240.132812 153.992188 237.292969 155.742188 235.589844 C 158.277344 233.136719 159.671875 229.882812 159.671875 226.433594 C 159.671875 219.257812 153.578125 213.421875 146.085938 213.421875 L 128.859375 213.421875 Z M 146.085938 249.464844 C 146.035156 249.464844 145.984375 249.464844 145.933594 249.464844 L 124.054688 248.757812 C 121.546875 248.671875 119.550781 246.617188 119.550781 244.105469 L 119.550781 178.441406 C 119.550781 175.9375 121.539062 173.882812 124.042969 173.792969 L 144.277344 173.085938 C 144.332031 173.082031 144.386719 173.082031 144.441406 173.082031 C 155.445312 173.082031 164.746094 182.480469 164.746094 193.605469 C 164.746094 198.933594 162.613281 203.929688 158.742188 207.671875 C 158.703125 207.703125 158.667969 207.742188 158.632812 207.773438 C 164.859375 211.769531 168.980469 218.644531 168.980469 226.433594 C 168.980469 232.421875 166.578125 238.050781 162.21875 242.273438 C 157.429688 246.910156 151.703125 249.464844 146.085938 249.464844 " fill-opacity="1" fill-rule="nonzero"/><path fill="#000000" d="M 124.207031 183.09375 L 109.394531 183.09375 L 109.394531 173.789062 L 124.207031 173.789062 L 124.207031 183.09375 " fill-opacity="1" fill-rule="nonzero"/><path fill="#000000" d="M 128.859375 178.441406 L 119.550781 178.441406 L 119.550781 164.09375 L 128.859375 164.09375 L 128.859375 178.441406 " fill-opacity="1" fill-rule="nonzero"/><path fill="#000000" d="M 128.859375 258.367188 L 119.550781 258.367188 L 119.550781 244.015625 L 128.859375 244.015625 L 128.859375 258.367188 " fill-opacity="1" fill-rule="nonzero"/><path fill="#000000" d="M 146.949219 177.777344 L 137.640625 177.777344 L 137.640625 164.089844 L 146.949219 164.089844 L 146.949219 177.777344 " fill-opacity="1" fill-rule="nonzero"/><path fill="#000000" d="M 146.949219 258.371094 L 137.640625 258.371094 L 137.640625 244.722656 L 146.949219 244.722656 L 146.949219 258.371094 " fill-opacity="1" fill-rule="nonzero"/><path fill="#000000" d="M 124.207031 248.667969 L 109.394531 248.667969 L 109.394531 239.363281 L 124.207031 239.363281 L 124.207031 248.667969 " fill-opacity="1" fill-rule="nonzero"/><path fill="#000000" d="M 67.171875 111.78125 L 46.816406 111.78125 L 46.816406 102.476562 L 67.171875 102.476562 L 67.171875 111.78125 " fill-opacity="1" fill-rule="nonzero"/><path fill="#000000" d="M 117.667969 111.78125 L 97.308594 111.78125 L 97.308594 102.476562 L 117.667969 102.476562 L 117.667969 111.78125 " fill-opacity="1" fill-rule="nonzero"/><path fill="#000000" d="M 168.167969 111.78125 L 147.808594 111.78125 L 147.808594 102.476562 L 168.167969 102.476562 L 168.167969 111.78125 " fill-opacity="1" fill-rule="nonzero"/><path fill="#000000" d="M 218.660156 111.78125 L 198.300781 111.78125 L 198.300781 102.476562 L 218.660156 102.476562 L 218.660156 111.78125 " fill-opacity="1" fill-rule="nonzero"/><path fill="#000000" d="M 269.15625 111.78125 L 248.796875 111.78125 L 248.796875 102.476562 L 269.15625 102.476562 L 269.15625 111.78125 " fill-opacity="1" fill-rule="nonzero"/><path fill="#000000" d="M 319.652344 111.78125 L 299.292969 111.78125 L 299.292969 102.476562 L 319.652344 102.476562 L 319.652344 111.78125 " fill-opacity="1" fill-rule="nonzero"/><path fill="#000000" d="M 67.171875 319.984375 L 46.816406 319.984375 L 46.816406 310.679688 L 67.171875 310.679688 L 67.171875 319.984375 " fill-opacity="1" fill-rule="nonzero"/><path fill="#000000" d="M 117.667969 319.984375 L 97.308594 319.984375 L 97.308594 310.679688 L 117.667969 310.679688 L 117.667969 319.984375 " fill-opacity="1" fill-rule="nonzero"/><path fill="#000000" d="M 168.167969 319.984375 L 147.808594 319.984375 L 147.808594 310.679688 L 168.167969 310.679688 L 168.167969 319.984375 " fill-opacity="1" fill-rule="nonzero"/><path fill="#000000" d="M 218.660156 319.984375 L 198.300781 319.984375 L 198.300781 310.679688 L 218.660156 310.679688 L 218.660156 319.984375 " fill-opacity="1" fill-rule="nonzero"/><path fill="#000000" d="M 269.15625 319.984375 L 248.796875 319.984375 L 248.796875 310.679688 L 269.15625 310.679688 L 269.15625 319.984375 " fill-opacity="1" fill-rule="nonzero"/><path fill="#000000" d="M 319.652344 319.984375 L 299.292969 319.984375 L 299.292969 310.679688 L 319.652344 310.679688 L 319.652344 319.984375 " fill-opacity="1" fill-rule="nonzero"/><path fill="#000000" d="M 139.191406 140.886719 C 100.496094 140.886719 69.015625 172.445312 69.015625 211.230469 C 69.015625 250.015625 100.496094 281.574219 139.191406 281.574219 C 177.886719 281.574219 209.367188 250.015625 209.367188 211.230469 C 209.367188 172.445312 177.886719 140.886719 139.191406 140.886719 Z M 139.191406 290.875 C 95.363281 290.875 59.707031 255.144531 59.707031 211.230469 C 59.707031 167.3125 95.363281 131.585938 139.191406 131.585938 C 183.019531 131.585938 218.675781 167.3125 218.675781 211.230469 C 218.675781 255.144531 183.019531 290.875 139.191406 290.875 " fill-opacity="1" fill-rule="nonzero"/></svg>