<svg xmlns="http://www.w3.org/2000/svg" xmlns:xlink="http://www.w3.org/1999/xlink" width="500" zoomAndPan="magnify" viewBox="0 0 375 374.999991" height="500" preserveAspectRatio="xMidYMid meet" version="1.0"><defs><clipPath id="id1"><path d="M 10.871094 8 L 363 8 L 363 368.300781 L 10.871094 368.300781 Z M 10.871094 8 " clip-rule="nonzero"/></clipPath></defs><g clip-path="url(#id1)"><path fill="#000000" d="M 359.589844 176.703125 L 172.746094 10.558594 C 172.25 10.117188 171.714844 9.730469 171.140625 9.394531 C 170.566406 9.058594 169.96875 8.78125 169.339844 8.5625 C 168.710938 8.347656 168.070312 8.191406 167.410156 8.101562 C 166.753906 8.011719 166.09375 7.984375 165.429688 8.023438 C 164.765625 8.0625 164.113281 8.167969 163.46875 8.335938 C 162.828125 8.503906 162.207031 8.730469 161.609375 9.023438 C 161.011719 9.3125 160.449219 9.65625 159.917969 10.058594 C 159.386719 10.460938 158.902344 10.90625 158.460938 11.40625 L 89.621094 88.863281 L 86.265625 87.46875 C 85.652344 87.210938 85.019531 87.015625 84.367188 86.886719 C 83.71875 86.753906 83.058594 86.6875 82.394531 86.683594 C 81.730469 86.679688 81.074219 86.742188 80.421875 86.871094 C 79.769531 86.996094 79.136719 87.1875 78.519531 87.4375 C 77.90625 87.691406 77.320312 88 76.765625 88.367188 C 76.214844 88.734375 75.699219 89.152344 75.226562 89.621094 C 74.757812 90.085938 74.335938 90.597656 73.964844 91.148438 C 73.589844 91.699219 73.277344 92.28125 73.019531 92.894531 L 32.804688 189.398438 C 32.050781 189.5 31.308594 189.632812 30.570312 189.796875 C 29.832031 189.964844 29.101562 190.164062 28.382812 190.394531 C 27.660156 190.625 26.953125 190.890625 26.257812 191.183594 C 25.558594 191.480469 24.878906 191.804688 24.210938 192.164062 C 23.542969 192.519531 22.894531 192.90625 22.261719 193.320312 C 21.628906 193.738281 21.015625 194.179688 20.421875 194.648438 C 19.828125 195.121094 19.257812 195.617188 18.710938 196.136719 C 18.160156 196.660156 17.636719 197.203125 17.140625 197.773438 C 16.640625 198.34375 16.167969 198.933594 15.71875 199.542969 C 15.273438 200.15625 14.855469 200.785156 14.46875 201.433594 C 14.078125 202.082031 13.71875 202.75 13.386719 203.429688 C 13.058594 204.109375 12.757812 204.804688 12.492188 205.515625 C 12.226562 206.222656 11.988281 206.941406 11.785156 207.667969 C 11.585938 208.398438 11.414062 209.136719 11.277344 209.878906 C 11.140625 210.625 11.039062 211.375 10.96875 212.128906 C 10.898438 212.882812 10.863281 213.636719 10.863281 214.394531 L 10.863281 343.082031 C 10.867188 343.90625 10.90625 344.730469 10.988281 345.550781 C 11.074219 346.371094 11.195312 347.1875 11.355469 347.996094 C 11.519531 348.804688 11.71875 349.601562 11.960938 350.390625 C 12.203125 351.179688 12.480469 351.957031 12.796875 352.71875 C 13.113281 353.480469 13.464844 354.222656 13.855469 354.949219 C 14.246094 355.675781 14.667969 356.382812 15.128906 357.070312 C 15.585938 357.753906 16.078125 358.414062 16.601562 359.054688 C 17.125 359.691406 17.679688 360.300781 18.261719 360.882812 C 18.84375 361.464844 19.457031 362.019531 20.09375 362.542969 C 20.730469 363.066406 21.390625 363.554688 22.078125 364.015625 C 22.761719 364.472656 23.46875 364.894531 24.195312 365.285156 C 24.921875 365.675781 25.667969 366.027344 26.429688 366.34375 C 27.191406 366.660156 27.964844 366.9375 28.753906 367.175781 C 29.542969 367.417969 30.34375 367.617188 31.152344 367.777344 C 31.960938 367.941406 32.773438 368.0625 33.59375 368.144531 C 34.414062 368.226562 35.238281 368.265625 36.0625 368.269531 L 319.046875 368.269531 C 319.871094 368.265625 320.695312 368.226562 321.515625 368.144531 C 322.335938 368.0625 323.152344 367.941406 323.960938 367.777344 C 324.769531 367.617188 325.570312 367.414062 326.359375 367.175781 C 327.148438 366.933594 327.921875 366.65625 328.683594 366.339844 C 329.445312 366.023438 330.191406 365.671875 330.917969 365.28125 C 331.644531 364.890625 332.351562 364.46875 333.039062 364.007812 C 333.722656 363.550781 334.386719 363.058594 335.023438 362.535156 C 335.660156 362.011719 336.269531 361.457031 336.855469 360.875 C 337.4375 360.292969 337.992188 359.679688 338.515625 359.042969 C 339.039062 358.40625 339.527344 357.742188 339.988281 357.058594 C 340.445312 356.371094 340.871094 355.664062 341.257812 354.9375 C 341.648438 354.210938 342 353.464844 342.316406 352.703125 C 342.632812 351.941406 342.910156 351.164062 343.148438 350.375 C 343.390625 349.585938 343.589844 348.785156 343.753906 347.976562 C 343.914062 347.167969 344.035156 346.351562 344.117188 345.53125 C 344.199219 344.710938 344.238281 343.886719 344.242188 343.0625 L 344.242188 214.394531 C 344.242188 212.816406 344.097656 211.253906 343.808594 209.707031 L 360.429688 191.003906 C 360.871094 190.507812 361.261719 189.972656 361.59375 189.398438 C 361.929688 188.824219 362.207031 188.222656 362.425781 187.59375 C 362.640625 186.964844 362.796875 186.324219 362.886719 185.664062 C 362.976562 185.003906 363.003906 184.34375 362.964844 183.679688 C 362.925781 183.015625 362.824219 182.363281 362.65625 181.71875 C 362.488281 181.078125 362.257812 180.457031 361.96875 179.855469 C 361.679688 179.257812 361.335938 178.695312 360.933594 178.164062 C 360.535156 177.632812 360.085938 177.148438 359.589844 176.703125 Z M 79.058594 95.417969 C 79.242188 94.976562 79.503906 94.59375 79.839844 94.257812 C 80.175781 93.921875 80.566406 93.664062 81.003906 93.484375 C 81.445312 93.304688 81.902344 93.214844 82.378906 93.214844 C 82.851562 93.214844 83.308594 93.308594 83.75 93.488281 L 86.378906 94.574219 L 92.777344 97.246094 L 115.558594 106.753906 L 129.519531 112.578125 L 193.019531 139.0625 L 198.234375 141.234375 L 242.519531 159.710938 L 247.730469 161.882812 L 270.671875 171.453125 L 286.195312 177.925781 L 313.183594 189.183594 L 291.457031 189.183594 C 291.429688 189.078125 291.394531 188.972656 291.347656 188.875 C 291.007812 188.035156 290.421875 187.445312 289.585938 187.105469 L 287.855469 186.382812 L 263.53125 176.238281 L 241.546875 167.0625 L 235.351562 164.480469 L 199.941406 149.714844 L 193.730469 147.128906 L 146.003906 127.226562 L 127.464844 119.488281 L 107.140625 111.015625 L 103.136719 109.34375 C 102.738281 109.175781 102.320312 109.089844 101.886719 109.085938 C 101.453125 109.085938 101.035156 109.167969 100.636719 109.332031 C 100.234375 109.496094 99.878906 109.730469 99.574219 110.039062 C 99.265625 110.34375 99.03125 110.699219 98.863281 111.101562 C 98.730469 111.414062 98.59375 111.714844 98.4375 112.019531 C 98.042969 112.792969 97.585938 113.523438 97.054688 114.210938 C 96.527344 114.902344 95.9375 115.535156 95.292969 116.113281 C 94.644531 116.691406 93.949219 117.203125 93.203125 117.648438 C 92.460938 118.097656 91.683594 118.472656 90.867188 118.773438 C 90.054688 119.074219 89.21875 119.296875 88.363281 119.4375 C 87.507812 119.582031 86.644531 119.644531 85.777344 119.628906 C 84.910156 119.609375 84.050781 119.511719 83.203125 119.332031 C 82.351562 119.152344 81.527344 118.894531 80.726562 118.5625 C 80.328125 118.394531 79.910156 118.308594 79.476562 118.308594 C 79.042969 118.304688 78.625 118.386719 78.226562 118.554688 C 77.824219 118.71875 77.472656 118.957031 77.164062 119.261719 C 76.859375 119.570312 76.625 119.921875 76.457031 120.324219 L 54.53125 172.921875 C 54.363281 173.324219 54.277344 173.738281 54.273438 174.171875 C 54.273438 174.605469 54.355469 175.023438 54.519531 175.425781 C 54.683594 175.828125 54.917969 176.183594 55.226562 176.488281 C 55.53125 176.796875 55.886719 177.03125 56.289062 177.199219 C 57.488281 177.699219 58.59375 178.355469 59.609375 179.167969 C 60.625 179.980469 61.507812 180.914062 62.257812 181.976562 C 63.011719 183.035156 63.601562 184.179688 64.03125 185.40625 C 64.464844 186.632812 64.714844 187.894531 64.792969 189.191406 L 39.96875 189.191406 Z M 126.339844 94.832031 C 126.222656 92.691406 125.773438 90.625 124.996094 88.628906 C 124.222656 86.628906 123.15625 84.804688 121.800781 83.144531 L 155.65625 45.046875 C 156.554688 45.617188 157.492188 46.113281 158.46875 46.535156 C 159.445312 46.957031 160.445312 47.304688 161.476562 47.570312 C 162.507812 47.835938 163.550781 48.019531 164.609375 48.125 C 165.667969 48.226562 166.726562 48.246094 167.789062 48.183594 C 168.851562 48.125 169.902344 47.980469 170.941406 47.753906 C 171.980469 47.527344 172.996094 47.222656 173.988281 46.835938 C 174.976562 46.453125 175.933594 45.992188 176.855469 45.457031 C 177.773438 44.925781 178.644531 44.324219 179.472656 43.652344 L 325.96875 173.914062 C 325.238281 175.066406 324.632812 176.28125 324.144531 177.554688 C 323.660156 178.828125 323.304688 180.136719 323.078125 181.480469 C 322.855469 182.824219 322.765625 184.179688 322.8125 185.539062 C 322.859375 186.902344 323.039062 188.246094 323.355469 189.574219 L 322.558594 189.449219 C 322.53125 189.367188 322.496094 189.285156 322.464844 189.203125 C 321.957031 187.960938 321.230469 186.863281 320.285156 185.910156 C 319.335938 184.957031 318.242188 184.222656 317.003906 183.707031 L 251.777344 156.488281 C 252.347656 155.519531 252.867188 154.523438 253.328125 153.496094 C 253.792969 152.472656 254.203125 151.425781 254.554688 150.359375 C 254.90625 149.289062 255.203125 148.207031 255.4375 147.105469 C 255.675781 146.007812 255.851562 144.898438 255.972656 143.777344 C 256.089844 142.660156 256.148438 141.535156 256.148438 140.410156 C 256.144531 139.285156 256.082031 138.164062 255.960938 137.046875 C 255.839844 135.929688 255.660156 134.820312 255.421875 133.71875 C 255.179688 132.621094 254.882812 131.539062 254.527344 130.46875 C 254.171875 129.402344 253.761719 128.355469 253.292969 127.332031 C 252.824219 126.308594 252.304688 125.316406 251.730469 124.347656 C 251.15625 123.378906 250.535156 122.445312 249.859375 121.542969 C 249.1875 120.644531 248.46875 119.78125 247.703125 118.957031 C 246.9375 118.132812 246.128906 117.351562 245.28125 116.613281 C 244.429688 115.875 243.542969 115.183594 242.621094 114.539062 C 241.699219 113.898438 240.746094 113.304688 239.757812 112.765625 C 238.773438 112.222656 237.761719 111.734375 236.722656 111.304688 C 235.683594 110.871094 234.625 110.492188 233.546875 110.175781 C 232.46875 109.855469 231.375 109.59375 230.269531 109.390625 C 229.164062 109.1875 228.050781 109.042969 226.929688 108.957031 C 225.808594 108.875 224.683594 108.851562 223.558594 108.886719 C 222.4375 108.921875 221.316406 109.019531 220.203125 109.175781 C 219.089844 109.328125 217.984375 109.542969 216.894531 109.816406 C 215.804688 110.089844 214.730469 110.421875 213.675781 110.808594 C 212.621094 111.199219 211.585938 111.640625 210.578125 112.140625 C 209.570312 112.636719 208.589844 113.1875 207.640625 113.792969 C 206.691406 114.394531 205.777344 115.046875 204.898438 115.75 C 204.019531 116.449219 203.179688 117.195312 202.378906 117.984375 C 201.578125 118.777344 200.820312 119.609375 200.109375 120.480469 C 199.398438 121.351562 198.734375 122.257812 198.121094 123.199219 C 197.507812 124.140625 196.945312 125.113281 196.433594 126.117188 C 195.921875 127.121094 195.46875 128.144531 195.066406 129.199219 C 194.664062 130.25 194.320312 131.316406 194.035156 132.40625 L 124.9375 103.582031 C 126.050781 100.769531 126.519531 97.851562 126.339844 94.832031 Z M 198.917969 134.433594 C 199.132812 133.507812 199.402344 132.59375 199.71875 131.691406 C 200.035156 130.792969 200.398438 129.910156 200.8125 129.050781 C 201.222656 128.191406 201.679688 127.355469 202.183594 126.546875 C 202.6875 125.734375 203.230469 124.953125 203.820312 124.203125 C 204.40625 123.449219 205.035156 122.734375 205.699219 122.050781 C 206.367188 121.367188 207.066406 120.722656 207.800781 120.113281 C 208.539062 119.507812 209.304688 118.941406 210.101562 118.417969 C 210.898438 117.894531 211.722656 117.414062 212.570312 116.980469 C 213.417969 116.546875 214.289062 116.15625 215.179688 115.816406 C 216.070312 115.476562 216.980469 115.1875 217.902344 114.945312 C 218.824219 114.703125 219.757812 114.511719 220.699219 114.371094 C 221.644531 114.234375 222.59375 114.144531 223.546875 114.105469 C 224.5 114.070312 225.449219 114.085938 226.402344 114.152344 C 227.355469 114.21875 228.296875 114.335938 229.238281 114.503906 C 230.175781 114.671875 231.101562 114.890625 232.019531 115.160156 C 232.933594 115.429688 233.832031 115.75 234.710938 116.117188 C 235.589844 116.484375 236.449219 116.898438 237.285156 117.359375 C 238.121094 117.816406 238.929688 118.320312 239.707031 118.871094 C 240.488281 119.417969 241.238281 120.007812 241.953125 120.636719 C 242.671875 121.265625 243.351562 121.933594 243.996094 122.636719 C 244.640625 123.339844 245.246094 124.074219 245.808594 124.84375 C 246.375 125.613281 246.894531 126.410156 247.375 127.234375 C 247.851562 128.0625 248.285156 128.910156 248.667969 129.785156 C 249.054688 130.65625 249.390625 131.546875 249.679688 132.457031 C 249.96875 133.363281 250.210938 134.289062 250.398438 135.222656 C 250.585938 136.15625 250.726562 137.101562 250.8125 138.050781 C 250.898438 139 250.933594 139.953125 250.917969 140.90625 C 250.898438 141.859375 250.832031 142.8125 250.710938 143.757812 C 250.589844 144.703125 250.421875 145.640625 250.199219 146.570312 C 249.976562 147.496094 249.707031 148.410156 249.386719 149.308594 C 249.0625 150.207031 248.695312 151.085938 248.28125 151.945312 C 247.863281 152.800781 247.402344 153.636719 246.894531 154.445312 Z M 261.425781 189.191406 L 208.851562 189.191406 C 208.492188 186.484375 207.789062 183.867188 206.742188 181.34375 C 206.742188 181.289062 206.695312 181.234375 206.679688 181.183594 C 206.289062 180.253906 205.859375 179.339844 205.382812 178.449219 C 204.910156 177.558594 204.394531 176.691406 203.835938 175.847656 C 203.277344 175.007812 202.679688 174.195312 202.042969 173.410156 C 201.40625 172.625 200.734375 171.875 200.023438 171.15625 C 199.316406 170.4375 198.574219 169.75 197.800781 169.105469 C 197.023438 168.457031 196.222656 167.847656 195.386719 167.273438 C 194.554688 166.703125 193.695312 166.175781 192.8125 165.6875 C 191.929688 165.199219 191.023438 164.753906 190.09375 164.351562 C 189.167969 163.953125 188.226562 163.597656 187.265625 163.285156 C 186.304688 162.976562 185.328125 162.710938 184.34375 162.496094 C 183.355469 162.277344 182.363281 162.109375 181.359375 161.988281 C 180.355469 161.867188 179.351562 161.796875 178.339844 161.769531 C 177.332031 161.746094 176.324219 161.769531 175.316406 161.84375 C 174.308594 161.917969 173.308594 162.039062 172.3125 162.207031 C 171.316406 162.375 170.332031 162.59375 169.355469 162.855469 C 168.382812 163.121094 167.421875 163.429688 166.476562 163.785156 C 166.15625 163.898438 165.84375 164.023438 165.527344 164.15625 C 164.25 164.679688 163.015625 165.289062 161.816406 165.976562 C 160.621094 166.664062 159.472656 167.425781 158.375 168.265625 C 157.277344 169.105469 156.242188 170.011719 155.261719 170.984375 C 154.285156 171.960938 153.375 172.996094 152.53125 174.089844 C 151.6875 175.183594 150.921875 176.328125 150.230469 177.523438 C 149.535156 178.714844 148.925781 179.953125 148.394531 181.226562 C 147.863281 182.5 147.417969 183.804688 147.058594 185.140625 C 146.699219 186.472656 146.429688 187.824219 146.246094 189.191406 L 71.324219 189.191406 C 71.253906 187.527344 70.988281 185.894531 70.523438 184.292969 C 70.054688 182.695312 69.402344 181.175781 68.566406 179.734375 C 67.730469 178.292969 66.730469 176.972656 65.570312 175.777344 C 64.410156 174.578125 63.125 173.539062 61.710938 172.65625 L 81.320312 125.613281 C 82.355469 125.859375 83.402344 126.023438 84.464844 126.105469 C 85.523438 126.1875 86.585938 126.183594 87.648438 126.101562 C 88.707031 126.019531 89.753906 125.851562 90.789062 125.605469 C 91.824219 125.359375 92.835938 125.03125 93.820312 124.628906 C 94.804688 124.222656 95.75 123.742188 96.660156 123.191406 C 97.570312 122.636719 98.429688 122.019531 99.246094 121.332031 C 100.058594 120.644531 100.8125 119.898438 101.507812 119.09375 C 102.207031 118.289062 102.835938 117.433594 103.398438 116.53125 L 103.617188 116.625 L 122.144531 124.355469 L 142.449219 132.808594 L 160.988281 140.539062 L 196.8125 155.480469 L 206.402344 159.484375 L 223.828125 166.75 L 233.402344 170.785156 L 260.855469 182.238281 L 277.589844 189.214844 Z M 171.023438 167.828125 C 173.15625 167.269531 175.324219 166.992188 177.53125 166.992188 C 178.738281 166.992188 179.941406 167.074219 181.136719 167.246094 C 182.273438 167.40625 183.394531 167.636719 184.5 167.941406 C 185.605469 168.246094 186.683594 168.625 187.742188 169.070312 C 188.796875 169.515625 189.820312 170.027344 190.808594 170.605469 C 191.800781 171.183594 192.746094 171.824219 193.652344 172.527344 C 194.558594 173.230469 195.417969 173.988281 196.222656 174.804688 C 197.03125 175.617188 197.78125 176.480469 198.476562 177.390625 C 199.171875 178.304688 199.804688 179.257812 200.375 180.25 C 200.949219 181.246094 201.453125 182.273438 201.890625 183.332031 C 202.339844 184.429688 202.714844 185.546875 203.015625 186.691406 C 203.242188 187.515625 203.425781 188.351562 203.558594 189.191406 L 151.527344 189.191406 C 151.835938 187.265625 152.351562 185.398438 153.074219 183.585938 C 153.800781 181.773438 154.710938 180.0625 155.816406 178.453125 C 156.917969 176.84375 158.183594 175.375 159.613281 174.046875 C 161.042969 172.71875 162.601562 171.566406 164.285156 170.585938 C 165.324219 169.980469 166.402344 169.449219 167.511719 168.988281 C 168.65625 168.519531 169.824219 168.132812 171.023438 167.828125 Z M 319.046875 361.757812 L 36.0625 361.757812 C 35.453125 361.757812 34.84375 361.726562 34.234375 361.664062 C 33.625 361.605469 33.023438 361.515625 32.421875 361.394531 C 31.824219 361.273438 31.230469 361.125 30.648438 360.949219 C 30.0625 360.769531 29.488281 360.566406 28.925781 360.332031 C 28.359375 360.097656 27.808594 359.835938 27.269531 359.546875 C 26.730469 359.257812 26.207031 358.945312 25.699219 358.605469 C 25.191406 358.265625 24.699219 357.902344 24.230469 357.511719 C 23.757812 357.125 23.304688 356.714844 22.871094 356.28125 C 22.441406 355.851562 22.03125 355.398438 21.640625 354.925781 C 21.253906 354.453125 20.890625 353.964844 20.550781 353.457031 C 20.210938 352.945312 19.898438 352.421875 19.609375 351.882812 C 19.320312 351.347656 19.058594 350.792969 18.824219 350.230469 C 18.589844 349.664062 18.386719 349.089844 18.207031 348.503906 C 18.03125 347.921875 17.882812 347.328125 17.761719 346.730469 C 17.640625 346.128906 17.550781 345.527344 17.492188 344.917969 C 17.429688 344.308594 17.398438 343.699219 17.398438 343.089844 L 17.398438 243.261719 L 292.746094 243.261719 C 293.199219 243.441406 293.664062 243.515625 294.148438 243.488281 C 294.5 243.46875 294.839844 243.394531 295.167969 243.261719 L 337.707031 243.261719 L 337.707031 343.089844 C 337.703125 343.699219 337.675781 344.308594 337.613281 344.917969 C 337.554688 345.527344 337.464844 346.128906 337.34375 346.730469 C 337.222656 347.328125 337.074219 347.917969 336.898438 348.503906 C 336.71875 349.089844 336.511719 349.664062 336.28125 350.226562 C 336.046875 350.792969 335.785156 351.34375 335.496094 351.882812 C 335.207031 352.421875 334.894531 352.945312 334.554688 353.453125 C 334.214844 353.960938 333.851562 354.453125 333.464844 354.925781 C 333.078125 355.398438 332.667969 355.847656 332.234375 356.28125 C 331.804688 356.714844 331.351562 357.125 330.878906 357.511719 C 330.40625 357.898438 329.917969 358.261719 329.410156 358.601562 C 328.902344 358.941406 328.378906 359.257812 327.839844 359.542969 C 327.300781 359.832031 326.75 360.09375 326.183594 360.328125 C 325.621094 360.5625 325.046875 360.769531 324.460938 360.949219 C 323.878906 361.125 323.285156 361.273438 322.6875 361.394531 C 322.085938 361.515625 321.484375 361.605469 320.875 361.664062 C 320.269531 361.726562 319.660156 361.757812 319.046875 361.757812 Z M 337.707031 224.242188 L 303.984375 224.242188 L 304.132812 223.871094 L 303.808594 224.242188 L 17.398438 224.242188 L 17.398438 214.394531 C 17.402344 213.332031 17.492188 212.28125 17.671875 211.234375 C 17.851562 210.191406 18.121094 209.167969 18.472656 208.167969 C 18.828125 207.167969 19.265625 206.207031 19.78125 205.28125 C 20.300781 204.355469 20.894531 203.480469 21.558594 202.65625 C 22.226562 201.832031 22.957031 201.070312 23.753906 200.371094 C 24.550781 199.671875 25.402344 199.046875 26.304688 198.492188 C 27.210938 197.9375 28.152344 197.460938 29.136719 197.066406 C 30.121094 196.671875 31.132812 196.363281 32.167969 196.144531 C 33.453125 195.867188 34.75 195.730469 36.0625 195.730469 L 319.046875 195.730469 C 320.292969 195.730469 321.527344 195.851562 322.746094 196.09375 C 324.34375 196.414062 325.871094 196.941406 327.324219 197.671875 C 328.101562 198.054688 328.847656 198.488281 329.5625 198.976562 C 330.277344 199.460938 330.957031 199.996094 331.597656 200.578125 C 332.238281 201.160156 332.835938 201.78125 333.390625 202.445312 C 333.945312 203.109375 334.453125 203.8125 334.910156 204.546875 C 335.363281 205.28125 335.769531 206.046875 336.117188 206.835938 C 336.46875 207.628906 336.761719 208.441406 336.996094 209.273438 C 337.234375 210.105469 337.410156 210.953125 337.53125 211.808594 C 337.648438 212.667969 337.707031 213.527344 337.707031 214.394531 Z M 355.542969 186.652344 L 341.332031 202.648438 C 340.226562 200.558594 338.855469 198.660156 337.21875 196.953125 C 335.582031 195.246094 333.742188 193.796875 331.703125 192.605469 C 331.273438 191.972656 330.902344 191.304688 330.582031 190.609375 C 330.265625 189.914062 330.007812 189.195312 329.808594 188.457031 C 329.609375 187.71875 329.472656 186.96875 329.398438 186.207031 C 329.320312 185.445312 329.308594 184.683594 329.359375 183.921875 C 329.410156 183.15625 329.523438 182.402344 329.699219 181.660156 C 329.875 180.914062 330.113281 180.1875 330.40625 179.484375 C 330.703125 178.777344 331.054688 178.101562 331.460938 177.453125 C 331.867188 176.804688 332.328125 176.195312 332.835938 175.625 C 333.125 175.300781 333.339844 174.933594 333.480469 174.523438 C 333.625 174.113281 333.683594 173.695312 333.65625 173.261719 C 333.628906 172.828125 333.523438 172.417969 333.332031 172.027344 C 333.140625 171.636719 332.882812 171.300781 332.558594 171.011719 L 181.570312 36.777344 C 181.25 36.488281 180.882812 36.269531 180.472656 36.128906 C 180.0625 35.984375 179.640625 35.925781 179.207031 35.949219 C 178.773438 35.972656 178.363281 36.082031 177.972656 36.273438 C 177.582031 36.460938 177.242188 36.71875 176.957031 37.042969 C 176.351562 37.726562 175.6875 38.339844 174.960938 38.890625 C 174.234375 39.441406 173.460938 39.914062 172.644531 40.3125 C 171.824219 40.710938 170.972656 41.023438 170.09375 41.253906 C 169.210938 41.484375 168.316406 41.625 167.40625 41.679688 C 166.5 41.730469 165.59375 41.695312 164.691406 41.570312 C 163.789062 41.445312 162.910156 41.234375 162.046875 40.9375 C 161.1875 40.640625 160.367188 40.257812 159.582031 39.796875 C 158.796875 39.339844 158.0625 38.804688 157.382812 38.199219 C 157.058594 37.910156 156.691406 37.695312 156.28125 37.550781 C 155.875 37.410156 155.453125 37.351562 155.019531 37.375 C 154.585938 37.402344 154.175781 37.507812 153.785156 37.699219 C 153.394531 37.890625 153.058594 38.144531 152.769531 38.472656 L 114.914062 81.0625 C 114.625 81.382812 114.40625 81.75 114.265625 82.160156 C 114.121094 82.570312 114.0625 82.992188 114.089844 83.425781 C 114.117188 83.859375 114.222656 84.273438 114.414062 84.664062 C 114.605469 85.050781 114.863281 85.390625 115.191406 85.675781 C 115.714844 86.144531 116.203125 86.652344 116.652344 87.195312 C 117.101562 87.738281 117.503906 88.308594 117.867188 88.914062 C 118.230469 89.519531 118.542969 90.148438 118.808594 90.796875 C 119.074219 91.449219 119.289062 92.121094 119.457031 92.804688 C 119.621094 93.488281 119.730469 94.183594 119.789062 94.882812 C 119.851562 95.585938 119.855469 96.289062 119.808594 96.992188 C 119.761719 97.691406 119.660156 98.386719 119.507812 99.074219 C 119.355469 99.761719 119.148438 100.433594 118.894531 101.089844 L 96.007812 91.546875 L 163.34375 15.746094 C 164 15.003906 164.824219 14.605469 165.816406 14.550781 C 165.886719 14.546875 165.960938 14.546875 166.03125 14.550781 C 166.941406 14.550781 167.730469 14.855469 168.40625 15.460938 L 355.25 181.597656 C 355.605469 181.914062 355.886719 182.285156 356.09375 182.714844 C 356.296875 183.140625 356.414062 183.589844 356.441406 184.066406 C 356.46875 184.539062 356.40625 185 356.25 185.449219 C 356.09375 185.898438 355.859375 186.300781 355.542969 186.652344 Z M 355.542969 186.652344 " fill-opacity="1" fill-rule="nonzero"/></g><path fill="#000000" d="M 183.964844 86.027344 C 184.632812 86.625 185.238281 87.28125 185.777344 88 C 186.320312 88.714844 186.785156 89.476562 187.171875 90.285156 C 187.5625 91.09375 187.871094 91.933594 188.09375 92.800781 C 188.320312 93.667969 188.457031 94.550781 188.507812 95.449219 C 188.558594 96.34375 188.523438 97.234375 188.398438 98.125 C 188.273438 99.011719 188.0625 99.882812 187.769531 100.726562 C 187.472656 101.574219 187.097656 102.386719 186.640625 103.160156 C 186.1875 103.933594 185.660156 104.652344 185.0625 105.324219 C 184.464844 105.992188 183.808594 106.597656 183.09375 107.136719 C 182.375 107.679688 181.613281 108.144531 180.804688 108.53125 C 180 108.921875 179.160156 109.230469 178.292969 109.457031 C 177.421875 109.679688 176.542969 109.816406 175.644531 109.871094 C 174.75 109.921875 173.859375 109.882812 172.96875 109.757812 C 172.082031 109.632812 171.214844 109.421875 170.367188 109.128906 C 169.519531 108.832031 168.710938 108.457031 167.9375 108 C 167.164062 107.546875 166.441406 107.019531 165.773438 106.421875 C 165.105469 105.824219 164.5 105.167969 163.957031 104.453125 C 163.417969 103.734375 162.953125 102.972656 162.5625 102.164062 C 162.175781 101.355469 161.867188 100.519531 161.640625 99.648438 C 161.417969 98.78125 161.28125 97.898438 161.226562 97.003906 C 161.175781 96.105469 161.214844 95.214844 161.339844 94.324219 C 161.464844 93.4375 161.671875 92.570312 161.96875 91.722656 C 162.265625 90.875 162.640625 90.0625 163.09375 89.289062 C 163.550781 88.515625 164.078125 87.796875 164.675781 87.125 C 165.269531 86.457031 165.929688 85.851562 166.644531 85.3125 C 167.359375 84.773438 168.121094 84.304688 168.929688 83.917969 C 169.738281 83.527344 170.578125 83.21875 171.445312 82.996094 C 172.3125 82.769531 173.195312 82.632812 174.089844 82.582031 C 174.988281 82.53125 175.878906 82.566406 176.769531 82.691406 C 177.65625 82.816406 178.523438 83.027344 179.371094 83.320312 C 180.21875 83.617188 181.027344 83.992188 181.800781 84.449219 C 182.574219 84.902344 183.296875 85.429688 183.964844 86.027344 Z M 183.964844 86.027344 " fill-opacity="1" fill-rule="nonzero"/><path fill="#000000" d="M 121.398438 155.136719 C 120.570312 154.792969 119.71875 154.53125 118.839844 154.355469 C 117.960938 154.175781 117.070312 154.085938 116.175781 154.085938 C 115.277344 154.082031 114.386719 154.167969 113.507812 154.339844 C 112.628906 154.511719 111.773438 154.769531 110.941406 155.109375 C 110.113281 155.453125 109.324219 155.871094 108.578125 156.367188 C 107.828125 156.863281 107.136719 157.429688 106.503906 158.0625 C 105.867188 158.695312 105.296875 159.382812 104.796875 160.128906 C 104.296875 160.875 103.875 161.660156 103.53125 162.488281 C 103.183594 163.316406 102.921875 164.171875 102.746094 165.050781 C 102.566406 165.929688 102.480469 166.820312 102.476562 167.71875 C 102.472656 168.613281 102.558594 169.503906 102.730469 170.382812 C 102.90625 171.265625 103.164062 172.121094 103.503906 172.949219 C 103.84375 173.78125 104.265625 174.570312 104.761719 175.316406 C 105.257812 176.0625 105.820312 176.753906 106.453125 177.390625 C 107.085938 178.027344 107.777344 178.59375 108.519531 179.097656 C 109.265625 179.597656 110.050781 180.019531 110.878906 180.363281 C 111.707031 180.710938 112.5625 180.972656 113.441406 181.148438 C 114.320312 181.324219 115.210938 181.414062 116.105469 181.417969 C 117.003906 181.417969 117.890625 181.332031 118.773438 181.160156 C 119.652344 180.988281 120.507812 180.730469 121.335938 180.390625 C 122.167969 180.046875 122.957031 179.628906 123.703125 179.132812 C 124.449219 178.632812 125.140625 178.070312 125.777344 177.4375 C 126.414062 176.804688 126.980469 176.113281 127.480469 175.371094 C 127.980469 174.625 128.402344 173.835938 128.75 173.007812 C 129.09375 172.179688 129.355469 171.328125 129.535156 170.449219 C 129.710938 169.570312 129.800781 168.679688 129.804688 167.78125 C 129.804688 166.886719 129.71875 165.996094 129.546875 165.117188 C 129.375 164.234375 129.117188 163.378906 128.777344 162.550781 C 128.433594 161.722656 128.015625 160.933594 127.519531 160.183594 C 127.023438 159.4375 126.457031 158.746094 125.824219 158.109375 C 125.191406 157.472656 124.503906 156.90625 123.757812 156.40625 C 123.015625 155.90625 122.226562 155.484375 121.398438 155.136719 Z M 121.398438 155.136719 " fill-opacity="1" fill-rule="nonzero"/><path fill="#000000" d="M 298.46875 304.714844 C 297.753906 304.714844 297.042969 304.75 296.328125 304.820312 C 295.617188 304.890625 294.910156 304.996094 294.210938 305.136719 C 293.507812 305.273438 292.816406 305.449219 292.132812 305.65625 C 291.445312 305.863281 290.773438 306.105469 290.113281 306.378906 C 289.453125 306.652344 288.808594 306.957031 288.175781 307.292969 C 287.546875 307.632812 286.933594 308 286.339844 308.394531 C 285.742188 308.792969 285.171875 309.21875 284.617188 309.671875 C 284.0625 310.128906 283.535156 310.605469 283.03125 311.113281 C 282.523438 311.617188 282.042969 312.148438 281.589844 312.699219 C 281.136719 313.253906 280.710938 313.828125 280.3125 314.421875 C 279.917969 315.015625 279.550781 315.628906 279.210938 316.261719 C 278.875 316.890625 278.570312 317.539062 278.296875 318.199219 C 278.023438 318.859375 277.78125 319.53125 277.574219 320.21875 C 277.367188 320.902344 277.191406 321.59375 277.054688 322.296875 C 276.914062 322.996094 276.808594 323.703125 276.738281 324.417969 C 276.667969 325.128906 276.632812 325.84375 276.632812 326.558594 C 276.632812 327.273438 276.667969 327.988281 276.738281 328.699219 C 276.808594 329.410156 276.914062 330.117188 277.054688 330.820312 C 277.191406 331.519531 277.367188 332.214844 277.574219 332.898438 C 277.78125 333.582031 278.023438 334.253906 278.296875 334.917969 C 278.570312 335.578125 278.875 336.222656 279.210938 336.855469 C 279.550781 337.484375 279.917969 338.097656 280.3125 338.691406 C 280.710938 339.289062 281.136719 339.863281 281.589844 340.414062 C 282.042969 340.96875 282.523438 341.496094 283.03125 342.003906 C 283.535156 342.507812 284.0625 342.988281 284.617188 343.441406 C 285.171875 343.894531 285.742188 344.320312 286.339844 344.71875 C 286.933594 345.117188 287.546875 345.484375 288.175781 345.820312 C 288.808594 346.15625 289.453125 346.464844 290.113281 346.738281 C 290.773438 347.011719 291.445312 347.25 292.132812 347.460938 C 292.816406 347.667969 293.507812 347.839844 294.210938 347.980469 C 294.910156 348.121094 295.617188 348.226562 296.328125 348.296875 C 297.042969 348.363281 297.753906 348.398438 298.46875 348.398438 C 299.183594 348.398438 299.898438 348.363281 300.609375 348.296875 C 301.320312 348.226562 302.027344 348.121094 302.730469 347.980469 C 303.429688 347.839844 304.125 347.667969 304.808594 347.460938 C 305.492188 347.253906 306.164062 347.011719 306.824219 346.738281 C 307.488281 346.464844 308.132812 346.160156 308.761719 345.820312 C 309.394531 345.484375 310.007812 345.117188 310.601562 344.71875 C 311.195312 344.320312 311.769531 343.894531 312.324219 343.441406 C 312.875 342.988281 313.40625 342.507812 313.910156 342.003906 C 314.414062 341.496094 314.894531 340.96875 315.347656 340.414062 C 315.804688 339.863281 316.230469 339.289062 316.625 338.691406 C 317.023438 338.097656 317.390625 337.484375 317.726562 336.855469 C 318.066406 336.222656 318.371094 335.578125 318.644531 334.917969 C 318.917969 334.253906 319.15625 333.582031 319.367188 332.898438 C 319.574219 332.214844 319.746094 331.519531 319.886719 330.820312 C 320.027344 330.117188 320.128906 329.410156 320.199219 328.699219 C 320.269531 327.988281 320.304688 327.273438 320.304688 326.558594 C 320.304688 325.84375 320.269531 325.128906 320.199219 324.417969 C 320.128906 323.707031 320.023438 323 319.882812 322.296875 C 319.742188 321.597656 319.570312 320.902344 319.359375 320.21875 C 319.152344 319.535156 318.910156 318.863281 318.636719 318.203125 C 318.363281 317.542969 318.058594 316.894531 317.722656 316.265625 C 317.382812 315.636719 317.015625 315.023438 316.621094 314.429688 C 316.222656 313.832031 315.796875 313.257812 315.34375 312.707031 C 314.890625 312.152344 314.410156 311.625 313.902344 311.117188 C 313.398438 310.613281 312.871094 310.132812 312.316406 309.679688 C 311.765625 309.226562 311.191406 308.800781 310.597656 308.402344 C 310 308.003906 309.390625 307.636719 308.757812 307.300781 C 308.128906 306.964844 307.484375 306.65625 306.824219 306.382812 C 306.164062 306.109375 305.488281 305.867188 304.804688 305.660156 C 304.121094 305.453125 303.429688 305.277344 302.726562 305.136719 C 302.027344 305 301.320312 304.894531 300.609375 304.824219 C 299.898438 304.75 299.183594 304.714844 298.46875 304.714844 Z M 298.46875 341.855469 C 297.464844 341.855469 296.46875 341.757812 295.484375 341.5625 C 294.5 341.367188 293.542969 341.078125 292.613281 340.691406 C 291.6875 340.308594 290.804688 339.835938 289.96875 339.277344 C 289.132812 338.71875 288.363281 338.085938 287.652344 337.375 C 286.941406 336.664062 286.304688 335.890625 285.75 335.054688 C 285.191406 334.21875 284.71875 333.339844 284.335938 332.410156 C 283.949219 331.480469 283.660156 330.523438 283.464844 329.539062 C 283.265625 328.550781 283.167969 327.558594 283.167969 326.550781 C 283.167969 325.546875 283.265625 324.550781 283.464844 323.566406 C 283.660156 322.582031 283.949219 321.625 284.332031 320.695312 C 284.71875 319.765625 285.1875 318.886719 285.746094 318.050781 C 286.304688 317.214844 286.941406 316.441406 287.648438 315.730469 C 288.359375 315.019531 289.132812 314.386719 289.96875 313.828125 C 290.804688 313.269531 291.6875 312.796875 292.613281 312.414062 C 293.542969 312.027344 294.5 311.738281 295.484375 311.542969 C 296.46875 311.34375 297.464844 311.246094 298.46875 311.246094 C 299.476562 311.246094 300.46875 311.347656 301.457031 311.542969 C 302.441406 311.738281 303.398438 312.027344 304.328125 312.414062 C 305.253906 312.796875 306.136719 313.269531 306.972656 313.828125 C 307.808594 314.386719 308.582031 315.023438 309.292969 315.734375 C 310 316.445312 310.636719 317.21875 311.195312 318.054688 C 311.75 318.890625 312.222656 319.769531 312.605469 320.699219 C 312.992188 321.628906 313.28125 322.585938 313.476562 323.570312 C 313.671875 324.558594 313.769531 325.550781 313.769531 326.558594 C 313.769531 327.5625 313.671875 328.558594 313.472656 329.542969 C 313.277344 330.527344 312.984375 331.484375 312.601562 332.410156 C 312.214844 333.339844 311.746094 334.21875 311.1875 335.054688 C 310.628906 335.890625 309.992188 336.664062 309.285156 337.375 C 308.574219 338.082031 307.800781 338.71875 306.964844 339.277344 C 306.132812 339.832031 305.25 340.304688 304.320312 340.691406 C 303.394531 341.074219 302.4375 341.363281 301.453125 341.5625 C 300.46875 341.757812 299.472656 341.855469 298.46875 341.855469 Z M 298.46875 341.855469 " fill-opacity="1" fill-rule="nonzero"/><path fill="#000000" d="M 274.894531 339.414062 C 274.125 339.910156 273.320312 340.335938 272.476562 340.6875 C 271.632812 341.039062 270.765625 341.3125 269.871094 341.507812 C 268.980469 341.703125 268.078125 341.816406 267.164062 341.851562 C 266.25 341.886719 265.34375 341.839844 264.4375 341.710938 C 263.53125 341.582031 262.648438 341.371094 261.78125 341.085938 C 260.914062 340.796875 260.078125 340.433594 259.273438 340 C 258.472656 339.5625 257.714844 339.054688 257.003906 338.484375 C 256.292969 337.910156 255.636719 337.277344 255.039062 336.589844 C 254.4375 335.898438 253.90625 335.160156 253.4375 334.375 C 252.972656 333.589844 252.578125 332.765625 252.261719 331.910156 C 251.941406 331.054688 251.699219 330.175781 251.539062 329.277344 C 251.375 328.378906 251.292969 327.472656 251.292969 326.558594 C 251.292969 325.644531 251.375 324.738281 251.539062 323.835938 C 251.699219 322.9375 251.941406 322.058594 252.261719 321.203125 C 252.578125 320.347656 252.972656 319.527344 253.4375 318.742188 C 253.90625 317.957031 254.4375 317.21875 255.039062 316.527344 C 255.636719 315.835938 256.292969 315.207031 257.003906 314.632812 C 257.714844 314.058594 258.472656 313.554688 259.273438 313.117188 C 260.078125 312.679688 260.914062 312.316406 261.78125 312.03125 C 262.648438 311.742188 263.53125 311.535156 264.4375 311.40625 C 265.34375 311.277344 266.25 311.230469 267.164062 311.261719 C 268.078125 311.296875 268.980469 311.414062 269.871094 311.609375 C 270.765625 311.804688 271.632812 312.078125 272.476562 312.429688 C 273.320312 312.78125 274.125 313.203125 274.894531 313.699219 C 275.257812 313.933594 275.652344 314.089844 276.078125 314.167969 C 276.507812 314.242188 276.929688 314.234375 277.355469 314.144531 C 277.777344 314.050781 278.167969 313.882812 278.523438 313.636719 C 278.878906 313.386719 279.175781 313.082031 279.410156 312.71875 C 279.644531 312.355469 279.800781 311.957031 279.878906 311.53125 C 279.957031 311.105469 279.949219 310.679688 279.855469 310.257812 C 279.765625 309.832031 279.597656 309.441406 279.351562 309.085938 C 279.105469 308.730469 278.796875 308.433594 278.433594 308.199219 C 277.339844 307.492188 276.1875 306.886719 274.984375 306.386719 C 273.78125 305.886719 272.542969 305.496094 271.269531 305.214844 C 269.996094 304.9375 268.707031 304.773438 267.40625 304.726562 C 266.101562 304.675781 264.804688 304.746094 263.515625 304.929688 C 262.222656 305.113281 260.960938 305.410156 259.722656 305.820312 C 258.484375 306.230469 257.292969 306.75 256.148438 307.371094 C 255.003906 307.996094 253.921875 308.71875 252.90625 309.535156 C 251.890625 310.351562 250.957031 311.253906 250.101562 312.238281 C 249.246094 313.222656 248.488281 314.277344 247.820312 315.398438 C 247.15625 316.519531 246.59375 317.691406 246.140625 318.914062 C 245.683594 320.136719 245.339844 321.386719 245.109375 322.671875 C 244.875 323.953125 244.761719 325.246094 244.761719 326.550781 C 244.761719 327.855469 244.875 329.148438 245.109375 330.433594 C 245.339844 331.71875 245.683594 332.96875 246.140625 334.191406 C 246.59375 335.414062 247.15625 336.585938 247.820312 337.707031 C 248.488281 338.828125 249.246094 339.878906 250.101562 340.867188 C 250.957031 341.851562 251.890625 342.753906 252.90625 343.570312 C 253.921875 344.386719 255.003906 345.109375 256.148438 345.730469 C 257.292969 346.355469 258.484375 346.875 259.722656 347.285156 C 260.960938 347.695312 262.222656 347.992188 263.515625 348.175781 C 264.804688 348.359375 266.101562 348.429688 267.40625 348.378906 C 268.707031 348.332031 269.996094 348.167969 271.269531 347.886719 C 272.542969 347.609375 273.78125 347.21875 274.984375 346.71875 C 276.1875 346.21875 277.339844 345.613281 278.433594 344.90625 C 278.800781 344.671875 279.105469 344.375 279.351562 344.019531 C 279.597656 343.664062 279.769531 343.273438 279.859375 342.847656 C 279.949219 342.425781 279.957031 342 279.878906 341.574219 C 279.804688 341.148438 279.648438 340.75 279.410156 340.386719 C 279.175781 340.023438 278.878906 339.71875 278.523438 339.472656 C 278.167969 339.222656 277.777344 339.054688 277.355469 338.964844 C 276.929688 338.875 276.503906 338.867188 276.078125 338.945312 C 275.652344 339.023438 275.257812 339.179688 274.894531 339.414062 Z M 274.894531 339.414062 " fill-opacity="1" fill-rule="nonzero"/><path fill="#000000" d="M 41.121094 256.929688 L 36.242188 256.929688 C 35.808594 256.929688 35.390625 257.011719 34.992188 257.175781 C 34.589844 257.34375 34.238281 257.578125 33.929688 257.886719 C 33.625 258.191406 33.386719 258.546875 33.222656 258.945312 C 33.058594 259.347656 32.972656 259.765625 32.972656 260.199219 C 32.972656 260.632812 33.058594 261.046875 33.222656 261.449219 C 33.386719 261.847656 33.625 262.203125 33.929688 262.507812 C 34.238281 262.816406 34.589844 263.050781 34.992188 263.21875 C 35.390625 263.382812 35.808594 263.464844 36.242188 263.464844 L 41.121094 263.464844 C 41.554688 263.464844 41.972656 263.382812 42.375 263.21875 C 42.773438 263.050781 43.128906 262.816406 43.433594 262.507812 C 43.738281 262.203125 43.976562 261.847656 44.140625 261.449219 C 44.308594 261.046875 44.390625 260.632812 44.390625 260.199219 C 44.390625 259.765625 44.308594 259.347656 44.140625 258.945312 C 43.976562 258.546875 43.738281 258.191406 43.433594 257.886719 C 43.128906 257.578125 42.773438 257.34375 42.375 257.175781 C 41.972656 257.011719 41.554688 256.929688 41.121094 256.929688 Z M 41.121094 256.929688 " fill-opacity="1" fill-rule="nonzero"/><path fill="#000000" d="M 66.800781 256.929688 L 57.171875 256.929688 C 56.738281 256.929688 56.320312 257.011719 55.921875 257.175781 C 55.519531 257.34375 55.167969 257.578125 54.859375 257.886719 C 54.554688 258.191406 54.320312 258.546875 54.152344 258.945312 C 53.988281 259.347656 53.902344 259.765625 53.902344 260.199219 C 53.902344 260.632812 53.988281 261.046875 54.152344 261.449219 C 54.320312 261.847656 54.554688 262.203125 54.859375 262.507812 C 55.167969 262.816406 55.519531 263.050781 55.921875 263.21875 C 56.320312 263.382812 56.738281 263.464844 57.171875 263.464844 L 66.800781 263.464844 C 67.230469 263.464844 67.648438 263.382812 68.050781 263.21875 C 68.449219 263.050781 68.804688 262.816406 69.109375 262.507812 C 69.417969 262.203125 69.652344 261.847656 69.816406 261.449219 C 69.984375 261.046875 70.066406 260.632812 70.066406 260.199219 C 70.066406 259.765625 69.984375 259.347656 69.816406 258.945312 C 69.652344 258.546875 69.417969 258.191406 69.109375 257.886719 C 68.804688 257.578125 68.449219 257.34375 68.050781 257.175781 C 67.648438 257.011719 67.230469 256.929688 66.800781 256.929688 Z M 66.800781 256.929688 " fill-opacity="1" fill-rule="nonzero"/><path fill="#000000" d="M 92.484375 263.464844 C 92.917969 263.464844 93.335938 263.382812 93.738281 263.21875 C 94.136719 263.050781 94.492188 262.816406 94.796875 262.507812 C 95.101562 262.203125 95.339844 261.847656 95.503906 261.449219 C 95.671875 261.046875 95.753906 260.632812 95.753906 260.199219 C 95.753906 259.765625 95.671875 259.347656 95.503906 258.945312 C 95.339844 258.546875 95.101562 258.191406 94.796875 257.886719 C 94.492188 257.578125 94.136719 257.34375 93.738281 257.175781 C 93.335938 257.011719 92.917969 256.929688 92.484375 256.929688 L 82.851562 256.929688 C 82.421875 256.929688 82.003906 257.011719 81.601562 257.175781 C 81.203125 257.34375 80.847656 257.578125 80.542969 257.886719 C 80.234375 258.191406 80 258.546875 79.835938 258.945312 C 79.667969 259.347656 79.585938 259.765625 79.585938 260.199219 C 79.585938 260.632812 79.667969 261.046875 79.835938 261.449219 C 80 261.847656 80.234375 262.203125 80.542969 262.507812 C 80.847656 262.816406 81.203125 263.050781 81.601562 263.21875 C 82.003906 263.382812 82.421875 263.464844 82.851562 263.464844 Z M 92.484375 263.464844 " fill-opacity="1" fill-rule="nonzero"/><path fill="#000000" d="M 195.210938 256.929688 L 185.578125 256.929688 C 185.253906 256.925781 184.9375 256.972656 184.628906 257.070312 C 184.246094 257.171875 183.890625 257.34375 183.566406 257.578125 C 183.246094 257.8125 182.972656 258.09375 182.757812 258.429688 C 182.539062 258.761719 182.386719 259.125 182.300781 259.515625 C 182.214844 259.902344 182.199219 260.296875 182.257812 260.691406 C 182.316406 261.085938 182.445312 261.457031 182.640625 261.804688 C 182.835938 262.152344 183.085938 262.453125 183.390625 262.710938 C 183.699219 262.964844 184.039062 263.160156 184.414062 263.289062 C 184.792969 263.417969 185.179688 263.480469 185.578125 263.464844 L 195.210938 263.464844 C 195.644531 263.464844 196.058594 263.382812 196.457031 263.21875 C 196.855469 263.054688 197.207031 262.816406 197.511719 262.511719 C 197.820312 262.207031 198.054688 261.855469 198.21875 261.457031 C 198.382812 261.058594 198.464844 260.644531 198.464844 260.210938 C 198.46875 259.777344 198.390625 259.359375 198.226562 258.957031 C 198.0625 258.554688 197.828125 258.199219 197.523438 257.890625 C 197.21875 257.582031 196.863281 257.347656 196.464844 257.179688 C 196.0625 257.011719 195.644531 256.929688 195.210938 256.929688 Z M 195.210938 256.929688 " fill-opacity="1" fill-rule="nonzero"/><path fill="#000000" d="M 287.40625 263.335938 C 287.488281 263.335938 287.574219 263.386719 287.660156 263.402344 C 287.875 263.445312 288.089844 263.46875 288.304688 263.464844 L 297.9375 263.464844 C 298.371094 263.464844 298.785156 263.382812 299.183594 263.21875 C 299.582031 263.054688 299.933594 262.816406 300.238281 262.511719 C 300.542969 262.207031 300.78125 261.855469 300.945312 261.457031 C 301.109375 261.058594 301.191406 260.644531 301.191406 260.210938 C 301.191406 259.78125 301.109375 259.363281 300.945312 258.964844 C 300.78125 258.566406 300.542969 258.214844 300.238281 257.910156 C 299.933594 257.605469 299.582031 257.367188 299.183594 257.203125 C 298.785156 257.039062 298.371094 256.957031 297.9375 256.957031 L 288.304688 256.957031 C 287.90625 256.945312 287.515625 257.003906 287.140625 257.136719 C 286.761719 257.269531 286.417969 257.464844 286.113281 257.722656 C 285.808594 257.980469 285.558594 258.285156 285.363281 258.636719 C 285.171875 258.988281 285.046875 259.359375 284.988281 259.757812 C 284.933594 260.152344 284.953125 260.546875 285.039062 260.9375 C 285.128906 261.328125 285.285156 261.6875 285.507812 262.019531 C 285.730469 262.355469 286.007812 262.636719 286.332031 262.867188 C 286.660156 263.097656 287.019531 263.265625 287.40625 263.363281 Z M 287.40625 263.335938 " fill-opacity="1" fill-rule="nonzero"/><path fill="#000000" d="M 220.886719 256.929688 L 211.261719 256.929688 C 210.921875 256.929688 210.589844 256.980469 210.269531 257.082031 C 209.945312 257.1875 209.644531 257.335938 209.367188 257.535156 C 209.09375 257.730469 208.851562 257.964844 208.648438 258.238281 C 208.449219 258.507812 208.289062 258.804688 208.179688 259.125 C 208.054688 259.476562 207.992188 259.839844 207.996094 260.210938 C 207.996094 260.644531 208.078125 261.058594 208.242188 261.457031 C 208.410156 261.855469 208.644531 262.207031 208.949219 262.511719 C 209.253906 262.816406 209.605469 263.054688 210.003906 263.21875 C 210.402344 263.382812 210.820312 263.464844 211.25 263.464844 L 220.878906 263.464844 C 221.3125 263.464844 221.726562 263.382812 222.128906 263.21875 C 222.527344 263.050781 222.882812 262.816406 223.1875 262.507812 C 223.496094 262.203125 223.730469 261.847656 223.898438 261.449219 C 224.0625 261.046875 224.144531 260.632812 224.144531 260.199219 C 224.144531 259.765625 224.0625 259.347656 223.898438 258.945312 C 223.730469 258.546875 223.496094 258.191406 223.1875 257.886719 C 222.882812 257.578125 222.527344 257.34375 222.128906 257.175781 C 221.726562 257.011719 221.3125 256.929688 220.878906 256.929688 Z M 220.886719 256.929688 " fill-opacity="1" fill-rule="nonzero"/><path fill="#000000" d="M 143.847656 256.929688 L 134.214844 256.929688 C 133.78125 256.929688 133.367188 257.011719 132.964844 257.175781 C 132.566406 257.34375 132.210938 257.578125 131.90625 257.886719 C 131.597656 258.191406 131.363281 258.546875 131.199219 258.945312 C 131.03125 259.347656 130.949219 259.765625 130.949219 260.199219 C 130.949219 260.632812 131.03125 261.046875 131.199219 261.449219 C 131.363281 261.847656 131.597656 262.203125 131.90625 262.507812 C 132.210938 262.816406 132.566406 263.050781 132.964844 263.21875 C 133.367188 263.382812 133.78125 263.464844 134.214844 263.464844 L 143.847656 263.464844 C 144.28125 263.464844 144.699219 263.382812 145.101562 263.21875 C 145.5 263.050781 145.851562 262.816406 146.160156 262.507812 C 146.464844 262.203125 146.703125 261.847656 146.867188 261.449219 C 147.035156 261.046875 147.117188 260.632812 147.117188 260.199219 C 147.117188 259.765625 147.035156 259.347656 146.867188 258.945312 C 146.703125 258.546875 146.464844 258.191406 146.160156 257.886719 C 145.851562 257.578125 145.5 257.34375 145.101562 257.175781 C 144.699219 257.011719 144.28125 256.929688 143.847656 256.929688 Z M 143.847656 256.929688 " fill-opacity="1" fill-rule="nonzero"/><path fill="#000000" d="M 249.839844 260.195312 C 249.839844 259.761719 249.757812 259.347656 249.59375 258.949219 C 249.425781 258.550781 249.191406 258.199219 248.886719 257.894531 C 248.582031 257.585938 248.230469 257.351562 247.832031 257.1875 C 247.433594 257.023438 247.019531 256.941406 246.585938 256.941406 L 236.941406 256.941406 C 236.507812 256.941406 236.09375 257.023438 235.691406 257.1875 C 235.292969 257.355469 234.9375 257.589844 234.632812 257.898438 C 234.324219 258.203125 234.089844 258.558594 233.921875 258.957031 C 233.757812 259.359375 233.675781 259.773438 233.675781 260.207031 C 233.675781 260.640625 233.757812 261.058594 233.921875 261.460938 C 234.089844 261.859375 234.324219 262.214844 234.632812 262.519531 C 234.9375 262.828125 235.292969 263.0625 235.691406 263.226562 C 236.09375 263.394531 236.507812 263.476562 236.941406 263.476562 L 246.585938 263.476562 C 247.019531 263.476562 247.4375 263.394531 247.835938 263.226562 C 248.238281 263.058594 248.589844 262.824219 248.898438 262.515625 C 249.203125 262.207031 249.4375 261.851562 249.601562 261.449219 C 249.765625 261.046875 249.84375 260.628906 249.839844 260.195312 Z M 249.839844 260.195312 " fill-opacity="1" fill-rule="nonzero"/><path fill="#000000" d="M 121.433594 260.195312 C 121.433594 259.761719 121.351562 259.347656 121.183594 258.949219 C 121.019531 258.550781 120.785156 258.199219 120.480469 257.894531 C 120.175781 257.585938 119.824219 257.351562 119.421875 257.1875 C 119.023438 257.023438 118.609375 256.941406 118.179688 256.941406 L 108.535156 256.941406 C 108.101562 256.941406 107.683594 257.023438 107.285156 257.1875 C 106.882812 257.355469 106.53125 257.589844 106.222656 257.898438 C 105.917969 258.203125 105.683594 258.558594 105.515625 258.957031 C 105.351562 259.359375 105.265625 259.773438 105.265625 260.207031 C 105.265625 260.640625 105.351562 261.058594 105.515625 261.460938 C 105.683594 261.859375 105.917969 262.214844 106.222656 262.519531 C 106.53125 262.828125 106.882812 263.0625 107.285156 263.226562 C 107.683594 263.394531 108.101562 263.476562 108.535156 263.476562 L 118.164062 263.476562 C 118.597656 263.480469 119.015625 263.398438 119.417969 263.230469 C 119.820312 263.066406 120.175781 262.828125 120.484375 262.519531 C 120.789062 262.210938 121.027344 261.855469 121.191406 261.453125 C 121.355469 261.050781 121.4375 260.628906 121.433594 260.195312 Z M 121.433594 260.195312 " fill-opacity="1" fill-rule="nonzero"/><path fill="#000000" d="M 169.523438 256.929688 L 159.898438 256.929688 C 159.464844 256.929688 159.046875 257.011719 158.648438 257.175781 C 158.246094 257.34375 157.894531 257.578125 157.585938 257.886719 C 157.28125 258.191406 157.042969 258.546875 156.878906 258.945312 C 156.714844 259.347656 156.628906 259.765625 156.628906 260.199219 C 156.628906 260.632812 156.714844 261.046875 156.878906 261.449219 C 157.042969 261.847656 157.28125 262.203125 157.585938 262.507812 C 157.894531 262.816406 158.246094 263.050781 158.648438 263.21875 C 159.046875 263.382812 159.464844 263.464844 159.898438 263.464844 L 169.523438 263.464844 C 169.957031 263.464844 170.371094 263.382812 170.769531 263.21875 C 171.167969 263.054688 171.519531 262.816406 171.828125 262.511719 C 172.132812 262.207031 172.367188 261.855469 172.53125 261.457031 C 172.695312 261.058594 172.78125 260.644531 172.78125 260.210938 C 172.777344 259.851562 172.722656 259.503906 172.613281 259.164062 C 172.503906 258.839844 172.351562 258.539062 172.148438 258.261719 C 171.945312 257.988281 171.707031 257.746094 171.429688 257.546875 C 171.152344 257.347656 170.851562 257.195312 170.527344 257.089844 C 170.199219 256.980469 169.867188 256.929688 169.523438 256.929688 Z M 169.523438 256.929688 " fill-opacity="1" fill-rule="nonzero"/><path fill="#000000" d="M 262.628906 263.464844 L 272.25 263.464844 C 272.640625 263.46875 273.019531 263.402344 273.382812 263.265625 C 273.75 263.132812 274.078125 262.941406 274.375 262.6875 C 274.671875 262.433594 274.914062 262.136719 275.105469 261.796875 C 275.292969 261.457031 275.417969 261.09375 275.480469 260.710938 C 275.511719 260.53125 275.527344 260.351562 275.523438 260.167969 C 275.523438 259.734375 275.4375 259.320312 275.273438 258.921875 C 275.109375 258.523438 274.875 258.171875 274.570312 257.867188 C 274.261719 257.5625 273.910156 257.324219 273.511719 257.160156 C 273.113281 256.996094 272.699219 256.914062 272.269531 256.914062 L 262.628906 256.914062 C 262.269531 256.910156 261.921875 256.96875 261.582031 257.085938 C 261.207031 257.203125 260.863281 257.378906 260.554688 257.621094 C 260.242188 257.863281 259.984375 258.148438 259.777344 258.484375 C 259.570312 258.816406 259.429688 259.179688 259.351562 259.5625 C 259.277344 259.949219 259.269531 260.335938 259.332031 260.722656 C 259.398438 261.113281 259.527344 261.476562 259.722656 261.816406 C 259.917969 262.160156 260.167969 262.453125 260.472656 262.703125 C 260.773438 262.957031 261.113281 263.144531 261.484375 263.273438 C 261.855469 263.402344 262.238281 263.460938 262.628906 263.449219 Z M 262.628906 263.464844 " fill-opacity="1" fill-rule="nonzero"/><path fill="#000000" d="M 318.886719 256.929688 L 314.003906 256.929688 C 313.570312 256.929688 313.152344 257.011719 312.753906 257.175781 C 312.351562 257.34375 312 257.578125 311.691406 257.886719 C 311.386719 258.191406 311.148438 258.546875 310.984375 258.945312 C 310.820312 259.347656 310.734375 259.765625 310.734375 260.199219 C 310.734375 260.632812 310.820312 261.046875 310.984375 261.449219 C 311.148438 261.847656 311.386719 262.203125 311.691406 262.507812 C 312 262.816406 312.351562 263.050781 312.753906 263.21875 C 313.152344 263.382812 313.570312 263.464844 314.003906 263.464844 L 318.886719 263.464844 C 319.316406 263.464844 319.734375 263.382812 320.136719 263.21875 C 320.535156 263.050781 320.890625 262.816406 321.195312 262.507812 C 321.503906 262.203125 321.738281 261.847656 321.902344 261.449219 C 322.070312 261.046875 322.152344 260.632812 322.152344 260.199219 C 322.152344 259.765625 322.070312 259.347656 321.902344 258.945312 C 321.738281 258.546875 321.503906 258.191406 321.195312 257.886719 C 320.890625 257.578125 320.535156 257.34375 320.136719 257.175781 C 319.734375 257.011719 319.316406 256.929688 318.886719 256.929688 Z M 318.886719 256.929688 " fill-opacity="1" fill-rule="nonzero"/><path fill="#000000" d="M 67.683594 315.132812 C 67.4375 314.886719 67.15625 314.699219 66.835938 314.566406 C 66.515625 314.433594 66.179688 314.367188 65.832031 314.367188 C 65.488281 314.367188 65.152344 314.433594 64.832031 314.566406 C 64.511719 314.699219 64.230469 314.886719 63.984375 315.132812 L 56.261719 322.859375 L 48.53125 315.132812 C 48.285156 314.886719 48.003906 314.699219 47.683594 314.566406 C 47.363281 314.433594 47.027344 314.367188 46.683594 314.367188 C 46.335938 314.367188 46 314.433594 45.679688 314.566406 C 45.359375 314.699219 45.078125 314.886719 44.832031 315.132812 C 44.585938 315.378906 44.398438 315.660156 44.265625 315.980469 C 44.132812 316.300781 44.066406 316.636719 44.066406 316.980469 C 44.066406 317.328125 44.132812 317.664062 44.265625 317.984375 C 44.398438 318.304688 44.585938 318.585938 44.832031 318.832031 L 52.5625 326.558594 L 44.820312 334.285156 C 44.578125 334.527344 44.386719 334.8125 44.253906 335.132812 C 44.121094 335.453125 44.054688 335.785156 44.054688 336.132812 C 44.054688 336.480469 44.121094 336.8125 44.253906 337.132812 C 44.386719 337.457031 44.578125 337.738281 44.820312 337.984375 C 45.066406 338.230469 45.351562 338.417969 45.671875 338.550781 C 45.992188 338.683594 46.324219 338.75 46.671875 338.75 C 47.019531 338.75 47.351562 338.683594 47.671875 338.550781 C 47.992188 338.417969 48.277344 338.230469 48.519531 337.984375 L 56.25 330.257812 L 63.972656 337.984375 C 64.21875 338.230469 64.5 338.417969 64.820312 338.550781 C 65.140625 338.683594 65.476562 338.75 65.824219 338.75 C 66.167969 338.75 66.503906 338.683594 66.824219 338.550781 C 67.144531 338.417969 67.425781 338.230469 67.671875 337.984375 C 67.917969 337.738281 68.105469 337.457031 68.238281 337.132812 C 68.371094 336.8125 68.4375 336.480469 68.4375 336.132812 C 68.4375 335.785156 68.371094 335.453125 68.238281 335.132812 C 68.105469 334.8125 67.917969 334.527344 67.671875 334.285156 L 59.949219 326.558594 L 67.671875 318.832031 C 67.917969 318.585938 68.105469 318.304688 68.242188 317.984375 C 68.375 317.664062 68.441406 317.332031 68.441406 316.984375 C 68.441406 316.636719 68.378906 316.304688 68.246094 315.984375 C 68.113281 315.660156 67.925781 315.378906 67.683594 315.132812 Z M 67.683594 315.132812 " fill-opacity="1" fill-rule="nonzero"/><path fill="#000000" d="M 105.339844 318.832031 C 105.578125 318.585938 105.757812 318.304688 105.882812 317.984375 C 106.011719 317.667969 106.070312 317.335938 106.070312 316.996094 C 106.066406 316.652344 105.996094 316.324219 105.863281 316.007812 C 105.734375 315.695312 105.546875 315.414062 105.304688 315.171875 C 105.0625 314.929688 104.785156 314.742188 104.46875 314.609375 C 104.15625 314.476562 103.824219 314.410156 103.484375 314.40625 C 103.140625 314.402344 102.8125 314.464844 102.496094 314.589844 C 102.175781 314.714844 101.894531 314.894531 101.648438 315.132812 L 93.917969 322.859375 L 86.1875 315.132812 C 85.945312 314.886719 85.660156 314.699219 85.339844 314.566406 C 85.019531 314.433594 84.6875 314.367188 84.339844 314.367188 C 83.992188 314.367188 83.660156 314.433594 83.339844 314.566406 C 83.019531 314.699219 82.738281 314.886719 82.492188 315.132812 C 82.246094 315.378906 82.058594 315.660156 81.925781 315.980469 C 81.792969 316.300781 81.726562 316.636719 81.726562 316.980469 C 81.726562 317.328125 81.792969 317.664062 81.925781 317.984375 C 82.054688 318.304688 82.246094 318.585938 82.488281 318.832031 L 90.21875 326.558594 L 82.488281 334.285156 C 82.117188 334.65625 81.878906 335.105469 81.773438 335.621094 C 81.671875 336.140625 81.71875 336.644531 81.921875 337.132812 C 82.125 337.625 82.445312 338.015625 82.886719 338.308594 C 83.324219 338.601562 83.8125 338.75 84.339844 338.75 C 85.0625 338.753906 85.679688 338.496094 86.1875 337.984375 L 93.917969 330.257812 L 101.648438 337.984375 C 101.894531 338.21875 102.175781 338.402344 102.496094 338.527344 C 102.8125 338.652344 103.140625 338.714844 103.484375 338.710938 C 103.824219 338.707031 104.15625 338.636719 104.46875 338.503906 C 104.785156 338.371094 105.0625 338.183594 105.304688 337.941406 C 105.546875 337.699219 105.734375 337.421875 105.867188 337.105469 C 105.996094 336.789062 106.066406 336.460938 106.070312 336.121094 C 106.074219 335.777344 106.011719 335.449219 105.886719 335.128906 C 105.757812 334.8125 105.578125 334.53125 105.339844 334.285156 L 97.617188 326.558594 Z M 105.339844 318.832031 " fill-opacity="1" fill-rule="nonzero"/><path fill="#000000" d="M 142.992188 315.132812 C 142.746094 314.886719 142.460938 314.699219 142.140625 314.566406 C 141.820312 314.433594 141.488281 314.367188 141.140625 314.367188 C 140.792969 314.367188 140.457031 314.433594 140.136719 314.566406 C 139.816406 314.699219 139.535156 314.886719 139.289062 315.132812 L 131.601562 322.859375 L 123.875 315.132812 C 123.625 314.894531 123.34375 314.714844 123.027344 314.589844 C 122.707031 314.464844 122.378906 314.402344 122.035156 314.40625 C 121.695312 314.410156 121.367188 314.476562 121.050781 314.609375 C 120.734375 314.742188 120.457031 314.929688 120.214844 315.171875 C 119.972656 315.414062 119.789062 315.695312 119.65625 316.007812 C 119.523438 316.324219 119.453125 316.652344 119.453125 316.996094 C 119.449219 317.335938 119.507812 317.667969 119.636719 317.984375 C 119.761719 318.304688 119.941406 318.585938 120.179688 318.832031 L 127.902344 326.558594 L 120.15625 334.285156 C 119.90625 334.527344 119.707031 334.808594 119.566406 335.132812 C 119.429688 335.453125 119.355469 335.792969 119.351562 336.144531 C 119.347656 336.496094 119.414062 336.832031 119.546875 337.160156 C 119.675781 337.484375 119.867188 337.769531 120.117188 338.019531 C 120.363281 338.269531 120.652344 338.460938 120.976562 338.59375 C 121.300781 338.726562 121.640625 338.789062 121.992188 338.785156 C 122.34375 338.785156 122.679688 338.710938 123.003906 338.574219 C 123.324219 338.433594 123.609375 338.238281 123.851562 337.984375 L 131.601562 330.257812 L 139.324219 337.984375 C 139.835938 338.496094 140.453125 338.75 141.175781 338.75 C 141.703125 338.75 142.191406 338.605469 142.628906 338.3125 C 143.070312 338.015625 143.394531 337.625 143.597656 337.136719 C 143.800781 336.648438 143.851562 336.144531 143.746094 335.625 C 143.644531 335.105469 143.40625 334.65625 143.03125 334.285156 L 135.300781 326.558594 L 142.992188 318.832031 C 143.234375 318.585938 143.421875 318.300781 143.554688 317.980469 C 143.6875 317.660156 143.753906 317.328125 143.753906 316.980469 C 143.753906 316.636719 143.6875 316.300781 143.554688 315.980469 C 143.421875 315.660156 143.234375 315.378906 142.992188 315.132812 Z M 142.992188 315.132812 " fill-opacity="1" fill-rule="nonzero"/></svg>