<svg xmlns="http://www.w3.org/2000/svg" xmlns:xlink="http://www.w3.org/1999/xlink" width="500" zoomAndPan="magnify" viewBox="0 0 375 374.999991" height="500" preserveAspectRatio="xMidYMid meet" version="1.0"><defs><clipPath id="id1"><path d="M 18.75 19.363281 L 356 19.363281 L 356 355.363281 L 18.75 355.363281 Z M 18.75 19.363281 " clip-rule="nonzero"/></clipPath></defs><g clip-path="url(#id1)"><path fill="#000000" d="M 33.980469 270.101562 L 54.753906 249.261719 L 69.28125 249.261719 L 69.28125 263.785156 L 48.4375 284.628906 C 46.261719 286.800781 46.261719 290.382812 48.4375 292.558594 C 53.140625 297.257812 59.316406 299.785156 65.980469 299.785156 C 76.859375 299.785156 87.035156 295.574219 94.757812 287.855469 L 95.738281 286.871094 C 104.019531 278.59375 108.582031 267.503906 108.582031 255.789062 C 108.582031 249.402344 111.039062 243.4375 115.53125 238.945312 L 125.425781 229.050781 L 144.867188 248.488281 C 156.164062 259.785156 171.183594 266.03125 187.183594 266.03125 C 200.167969 266.03125 212.378906 271.085938 221.574219 280.277344 L 229.785156 288.488281 L 222.554688 295.714844 C 220.449219 297.820312 220.378906 301.1875 222.34375 303.433594 L 267.261719 353.957031 C 268.3125 355.148438 269.855469 355.851562 271.472656 355.851562 C 271.542969 355.851562 271.542969 355.851562 271.613281 355.851562 C 273.226562 355.851562 274.769531 355.078125 275.824219 353.816406 L 331.335938 286.453125 L 322.632812 279.292969 L 271.332031 341.605469 L 234.207031 299.996094 L 310.703125 223.507812 L 342.421875 255.226562 L 331.828125 268.136719 L 340.527344 275.292969 L 354.425781 258.453125 C 356.25 256.207031 356.109375 252.980469 354.074219 250.945312 L 314.773438 211.648438 C 312.597656 209.472656 309.019531 209.472656 306.84375 211.648438 L 299.472656 218.878906 L 282 201.40625 C 275.191406 194.597656 271.402344 185.476562 271.402344 175.792969 L 271.402344 165.476562 C 271.402344 152.847656 266.488281 140.917969 257.503906 131.9375 L 240.101562 114.535156 C 244.382812 110.882812 249.785156 108.847656 255.539062 108.847656 C 267.261719 108.847656 278.347656 104.289062 286.628906 96.007812 L 287.613281 95.027344 C 295.261719 87.378906 299.542969 77.132812 299.542969 66.253906 C 299.542969 59.660156 296.945312 53.414062 292.316406 48.714844 C 290.140625 46.539062 286.558594 46.539062 284.382812 48.714844 L 263.46875 69.625 L 248.941406 69.625 L 248.941406 55.097656 L 269.785156 34.257812 C 271.960938 32.082031 271.960938 28.503906 269.785156 26.328125 C 265.085938 21.628906 258.910156 19.101562 252.242188 19.101562 C 241.363281 19.101562 231.1875 23.3125 223.46875 31.03125 L 222.484375 32.011719 C 214.203125 40.292969 209.640625 51.308594 209.640625 63.027344 C 209.640625 69.414062 207.1875 75.378906 202.695312 79.867188 L 187.183594 95.375 L 168.726562 76.921875 C 160.375 68.570312 146.691406 68.570312 138.339844 76.921875 C 132.375 82.886719 130.6875 91.515625 133.214844 99.027344 C 128.933594 99.726562 124.792969 101.691406 121.496094 104.988281 C 117.425781 109.058594 115.179688 114.464844 115.179688 120.21875 C 115.179688 124.988281 116.722656 129.480469 119.601562 133.269531 C 116.160156 134.25 112.933594 136.074219 110.265625 138.742188 C 104.300781 144.707031 102.617188 153.335938 105.144531 160.847656 C 100.863281 161.546875 96.722656 163.511719 93.421875 166.808594 C 86.40625 173.828125 85.28125 184.492188 89.984375 192.703125 L 79.597656 203.089844 C 75.105469 207.578125 69.140625 210.035156 62.753906 210.035156 C 51.035156 210.035156 39.945312 214.597656 31.664062 222.878906 L 30.679688 223.859375 C 23.03125 231.507812 18.75 241.753906 18.75 252.628906 C 18.75 259.226562 21.347656 265.46875 25.980469 270.171875 C 28.226562 272.277344 31.734375 272.277344 33.980469 270.101562 Z M 210.625 87.796875 C 217.222656 81.203125 220.871094 72.359375 220.871094 63.027344 C 220.871094 54.257812 224.308594 46.046875 230.484375 39.871094 L 231.46875 38.890625 C 237.011719 33.414062 244.382812 30.328125 252.242188 30.328125 C 253.925781 30.328125 255.46875 30.609375 257.015625 31.171875 L 239.398438 48.78125 C 238.347656 49.835938 237.785156 51.238281 237.785156 52.78125 L 237.785156 75.238281 C 237.785156 78.324219 240.3125 80.851562 243.398438 80.851562 L 265.855469 80.851562 C 267.332031 80.851562 268.804688 80.289062 269.855469 79.238281 L 287.472656 61.625 C 288.035156 63.097656 288.316406 64.710938 288.316406 66.394531 C 288.316406 74.253906 285.226562 81.625 279.683594 87.238281 L 278.699219 88.21875 C 272.523438 94.394531 264.3125 97.832031 255.539062 97.832031 C 246.207031 97.832031 237.363281 101.480469 230.765625 108.078125 L 215.257812 123.445312 L 195.113281 103.304688 Z M 101.351562 174.667969 C 105.355469 170.667969 111.878906 170.667969 115.878906 174.667969 L 127.109375 185.898438 L 135.039062 177.96875 L 118.195312 161.125 C 114.195312 157.125 114.195312 150.601562 118.195312 146.601562 C 122.195312 142.601562 128.722656 142.601562 132.722656 146.601562 L 143.953125 157.828125 L 149.566406 163.441406 L 157.496094 155.511719 L 140.65625 138.671875 L 129.425781 127.445312 C 127.460938 125.480469 126.40625 122.953125 126.40625 120.21875 C 126.40625 117.480469 127.460938 114.882812 129.425781 112.988281 C 133.425781 108.988281 139.953125 108.988281 143.953125 112.988281 L 172.023438 141.058594 L 179.957031 133.128906 L 151.882812 105.058594 L 146.269531 99.445312 C 142.269531 95.445312 142.269531 88.921875 146.269531 84.921875 C 150.269531 80.921875 156.796875 80.921875 160.796875 84.921875 L 233.785156 157.898438 L 241.714844 149.96875 L 223.1875 131.375 L 232.101562 122.460938 L 249.574219 139.933594 C 256.382812 146.742188 260.171875 155.863281 260.171875 165.546875 L 260.171875 175.863281 C 260.171875 188.492188 265.085938 200.421875 274.066406 209.402344 L 291.542969 226.875 L 277.015625 241.332031 L 243.328125 207.648438 L 243.328125 198.738281 L 248.941406 198.738281 C 252.03125 198.738281 254.558594 196.210938 254.558594 193.125 L 254.558594 170.667969 C 254.558594 167.582031 252.03125 165.054688 248.941406 165.054688 L 226.484375 165.054688 C 223.398438 165.054688 220.871094 167.582031 220.871094 170.667969 L 220.871094 193.125 C 220.871094 196.210938 223.398438 198.738281 226.484375 198.738281 L 232.101562 198.738281 L 232.101562 209.964844 C 232.101562 211.4375 232.660156 212.914062 233.714844 213.964844 L 269.015625 249.261719 L 254.558594 263.785156 L 225.992188 235.226562 L 230.414062 230.804688 C 232.589844 228.632812 232.589844 225.050781 230.414062 222.878906 L 213.570312 206.035156 C 211.394531 203.859375 207.816406 203.859375 205.640625 206.035156 L 188.796875 222.878906 C 186.621094 225.050781 186.621094 228.632812 188.796875 230.804688 L 205.640625 247.648438 C 206.765625 248.769531 208.167969 249.261719 209.640625 249.261719 C 211.117188 249.261719 212.519531 248.699219 213.640625 247.648438 L 218.0625 243.226562 L 246.628906 271.785156 L 237.714844 280.628906 L 229.503906 272.417969 C 218.203125 261.121094 203.183594 254.875 187.183594 254.875 C 174.199219 254.875 161.988281 249.824219 152.796875 240.628906 L 101.28125 189.125 C 97.351562 185.125 97.351562 178.667969 101.351562 174.667969 Z M 232.101562 187.511719 L 232.101562 176.285156 L 243.328125 176.285156 L 243.328125 187.511719 Z M 209.640625 235.71875 L 200.730469 226.804688 L 209.640625 217.894531 L 218.554688 226.804688 Z M 38.613281 231.71875 L 39.59375 230.734375 C 45.769531 224.5625 53.980469 221.121094 62.753906 221.121094 C 72.089844 221.121094 80.929688 217.472656 87.527344 210.878906 L 97.421875 200.984375 L 117.566406 221.121094 L 107.667969 231.015625 C 101.074219 237.613281 97.421875 246.453125 97.421875 255.789062 C 97.421875 264.558594 93.984375 272.769531 87.808594 278.945312 L 86.824219 279.925781 C 81.210938 285.46875 73.84375 288.558594 65.980469 288.558594 C 64.296875 288.558594 62.753906 288.277344 61.210938 287.714844 L 78.824219 270.101562 C 79.878906 269.050781 80.4375 267.644531 80.4375 266.101562 L 80.4375 243.648438 C 80.4375 240.558594 77.914062 238.035156 74.824219 238.035156 L 52.4375 238.035156 C 50.964844 238.035156 49.488281 238.59375 48.4375 239.648438 L 30.820312 257.261719 C 30.261719 255.789062 29.980469 254.171875 29.980469 252.488281 C 29.980469 244.699219 33.066406 237.332031 38.613281 231.71875 Z M 38.613281 231.71875 " fill-opacity="1" fill-rule="nonzero"/></g></svg>