<svg xmlns="http://www.w3.org/2000/svg" xmlns:xlink="http://www.w3.org/1999/xlink" width="500" zoomAndPan="magnify" viewBox="0 0 375 374.999991" height="500" preserveAspectRatio="xMidYMid meet" version="1.0"><defs><clipPath id="id1"><path d="M 29.011719 171 L 189 171 L 189 319.695312 L 29.011719 319.695312 Z M 29.011719 171 " clip-rule="nonzero"/></clipPath><clipPath id="id2"><path d="M 83 54.945312 L 346.261719 54.945312 L 346.261719 255 L 83 255 Z M 83 54.945312 " clip-rule="nonzero"/></clipPath></defs><g clip-path="url(#id1)"><path fill="#000000" d="M 164.375 181.617188 L 183.300781 181.617188 C 186.039062 181.617188 188.324219 179.402344 188.324219 176.601562 L 188.324219 176.078125 C 188.324219 173.34375 186.101562 171.0625 183.300781 171.0625 L 161.3125 171.0625 C 158.375 171.0625 155.765625 173.019531 154.980469 175.816406 L 150.023438 193.214844 C 147.738281 191.78125 145.0625 191 142.257812 191 L 44.847656 191 C 40.34375 191 36.039062 192.957031 33.167969 196.40625 C 30.230469 200.054688 29.1875 204.746094 30.296875 209.242188 L 43.539062 262.472656 C 45.171875 269.050781 51.046875 273.613281 57.832031 273.613281 L 137.234375 273.613281 C 140.628906 273.613281 143.367188 276.414062 143.238281 279.800781 C 143.105469 283.058594 140.367188 285.539062 137.105469 285.539062 L 70.488281 285.539062 C 61.027344 285.539062 53.195312 293.09375 53.195312 302.542969 C 53.195312 312.316406 61.550781 320.199219 71.46875 319.484375 C 79.554688 318.894531 86.210938 312.578125 87.125 304.496094 C 87.449219 301.828125 87.125 299.285156 86.277344 296.941406 L 106.175781 296.941406 C 105.589844 298.699219 105.199219 300.589844 105.199219 302.542969 C 105.199219 312.316406 113.484375 320.199219 123.402344 319.484375 C 131.753906 318.894531 138.476562 312.25 139.191406 303.910156 C 139.390625 301.433594 139.0625 299.085938 138.277344 296.875 C 147.347656 296.289062 154.523438 288.730469 154.523438 279.542969 C 154.523438 271.398438 148.914062 264.558594 141.34375 262.667969 L 154.65625 215.5625 Z M 70.226562 308.273438 C 67.160156 308.273438 64.613281 305.734375 64.613281 302.671875 C 64.613281 299.609375 67.160156 297.070312 70.226562 297.070312 C 73.292969 297.070312 75.839844 299.609375 75.839844 302.671875 C 75.839844 305.734375 73.292969 308.273438 70.226562 308.273438 Z M 122.292969 308.273438 C 119.226562 308.273438 116.679688 305.734375 116.679688 302.671875 C 116.679688 299.609375 119.226562 297.070312 122.292969 297.070312 C 125.359375 297.070312 127.90625 299.609375 127.90625 302.671875 C 127.90625 305.734375 125.359375 308.273438 122.292969 308.273438 Z M 41.324219 206.570312 C 41 205.203125 41.585938 204.226562 41.910156 203.769531 C 42.300781 203.3125 43.085938 202.53125 44.523438 202.53125 L 53.917969 202.53125 L 56.71875 215.757812 L 43.605469 215.757812 Z M 46.476562 227.09375 L 59.136719 227.09375 L 61.746094 239.34375 L 49.480469 239.34375 Z M 57.765625 262.277344 C 56.265625 262.277344 54.894531 261.234375 54.570312 259.800781 L 52.285156 250.742188 L 64.09375 250.742188 L 66.507812 262.34375 L 57.765625 262.34375 Z M 87.257812 262.277344 L 78.253906 262.277344 L 75.839844 250.679688 L 87.257812 250.679688 Z M 87.257812 239.34375 L 73.359375 239.34375 L 70.75 227.09375 L 87.191406 227.09375 L 87.191406 239.34375 Z M 87.257812 215.691406 L 68.398438 215.691406 L 65.597656 202.46875 L 87.257812 202.46875 Z M 106.699219 262.277344 L 98.675781 262.277344 L 98.675781 250.679688 L 109.246094 250.679688 Z M 111.789062 239.34375 L 98.675781 239.34375 L 98.675781 227.09375 L 114.464844 227.09375 Z M 98.675781 215.691406 L 98.675781 202.46875 L 119.878906 202.46875 L 117.007812 215.691406 Z M 130.382812 259.867188 C 129.992188 261.300781 128.6875 262.277344 127.1875 262.277344 L 118.378906 262.277344 L 120.925781 250.679688 L 132.929688 250.679688 Z M 136.191406 239.34375 L 123.464844 239.34375 L 126.140625 227.09375 L 139.648438 227.09375 Z M 145.390625 206.703125 L 142.847656 215.691406 L 128.621094 215.691406 L 131.492188 202.46875 L 142.191406 202.46875 C 143.628906 202.46875 144.476562 203.3125 144.800781 203.769531 C 145.261719 204.289062 145.78125 205.335938 145.390625 206.703125 Z M 145.390625 206.703125 " fill-opacity="1" fill-rule="nonzero"/></g><g clip-path="url(#id2)"><path fill="#000000" d="M 344.585938 227.160156 L 331.992188 211.652344 C 329.972656 209.175781 328.859375 206.117188 328.859375 202.921875 L 328.859375 79.132812 C 328.859375 65.644531 317.902344 54.699219 304.394531 54.699219 L 107.484375 54.699219 C 93.976562 54.699219 83.015625 65.644531 83.015625 79.132812 L 83.015625 174.386719 L 107.417969 174.386719 L 107.417969 79.066406 L 304.460938 79.066406 L 304.460938 204.488281 L 176.183594 204.488281 L 173.054688 215.691406 L 161.964844 254.914062 L 329.382812 254.914062 C 338.582031 254.914062 346.023438 247.488281 346.023438 238.300781 L 346.023438 231.199219 C 346.023438 229.765625 345.5 228.332031 344.585938 227.160156 Z M 232.429688 230.742188 C 232.429688 235.367188 228.644531 239.148438 224.011719 239.148438 L 187.800781 239.148438 C 183.167969 239.148438 179.382812 235.367188 179.382812 230.742188 L 179.382812 228.921875 L 232.492188 228.921875 L 232.492188 230.742188 Z M 232.429688 230.742188 " fill-opacity="1" fill-rule="nonzero"/></g></svg>