<svg xmlns="http://www.w3.org/2000/svg" xmlns:xlink="http://www.w3.org/1999/xlink" width="500" zoomAndPan="magnify" viewBox="0 0 375 374.999991" height="500" preserveAspectRatio="xMidYMid meet" version="1.0"><defs><clipPath id="id1"><path d="M 18.75 26 L 356 26 L 356 361.789062 L 18.75 361.789062 Z M 18.75 26 " clip-rule="nonzero"/></clipPath></defs><g clip-path="url(#id1)"><path fill="#000000" d="M 347.765625 308.65625 L 305.851562 261.507812 C 302.859375 258.136719 298.742188 256.265625 294.253906 255.894531 C 289.761719 255.519531 285.273438 257.015625 281.902344 260.007812 L 274.792969 266.371094 L 259.078125 248.410156 C 294.253906 214.359375 306.976562 163.839844 292.007812 117.066406 L 323.816406 85.261719 L 332.421875 93.867188 C 333.917969 95.363281 336.164062 95.738281 338.035156 95.363281 C 339.90625 94.613281 341.402344 93.117188 341.777344 90.871094 L 351.132812 32.5 C 351.507812 30.628906 350.757812 28.757812 349.636719 27.632812 C 348.511719 26.511719 346.640625 25.761719 344.769531 26.136719 L 286.769531 35.492188 C 284.523438 35.867188 283.027344 37.363281 282.277344 39.234375 C 281.53125 41.105469 282.277344 43.351562 283.773438 44.847656 L 292.382812 53.453125 L 269.929688 75.53125 C 268.808594 74.035156 267.308594 72.539062 266.1875 71.039062 C 219.414062 18.277344 138.210938 13.039062 85.074219 59.816406 C 77.964844 66.175781 71.976562 72.910156 66.738281 80.019531 C 66.738281 80.019531 66.363281 80.394531 66.363281 80.394531 C 59.253906 90.125 53.640625 100.976562 49.523438 112.203125 C 49.148438 113.699219 48.777344 114.449219 48.777344 115.195312 C 36.800781 150.746094 40.542969 190.78125 61.125 224.085938 L 24.453125 224.085938 C 21.460938 223.710938 18.839844 226.332031 18.839844 229.324219 L 18.839844 340.835938 C 18.839844 343.828125 21.460938 346.449219 24.453125 346.449219 L 214.546875 346.449219 C 217.542969 346.449219 220.160156 343.828125 220.160156 340.835938 L 220.160156 273.855469 C 231.011719 269.363281 241.492188 263.003906 250.84375 255.519531 L 266.5625 273.480469 L 259.453125 279.839844 C 256.085938 282.835938 254.214844 286.953125 253.839844 291.441406 C 253.464844 295.933594 254.960938 300.421875 257.957031 303.789062 L 299.867188 350.9375 C 306.226562 358.046875 314.835938 361.789062 323.816406 361.789062 C 331.300781 361.789062 338.78125 359.171875 344.769531 353.933594 C 351.132812 348.320312 354.875 340.460938 355.246094 332.230469 C 355.996094 323.25 353.375 315.015625 347.765625 308.65625 Z M 304.355469 49.710938 L 299.492188 44.847656 L 339.53125 38.484375 L 333.171875 78.523438 L 328.304688 73.660156 C 326.058594 71.414062 322.691406 71.414062 320.445312 73.660156 L 281.902344 111.453125 L 221.285156 172.074219 L 190.972656 141.761719 C 188.726562 139.519531 185.359375 139.519531 183.113281 141.761719 L 135.589844 188.914062 L 60.75 114.449219 C 63.371094 106.964844 67.113281 99.855469 71.226562 93.492188 L 131.476562 153.738281 C 133.71875 155.984375 137.089844 155.984375 139.332031 153.738281 L 186.855469 106.589844 L 217.167969 136.898438 C 219.414062 139.144531 222.78125 139.144531 225.027344 136.898438 L 303.980469 58.316406 C 305.105469 57.195312 305.480469 55.699219 305.480469 54.203125 C 305.480469 52.707031 305.105469 50.835938 304.355469 49.710938 Z M 92.558594 68.796875 C 140.828125 26.136719 214.921875 30.628906 257.582031 78.898438 C 259.078125 80.394531 260.574219 82.265625 261.699219 84.136719 L 221.285156 124.550781 L 190.972656 94.242188 C 188.726562 91.996094 185.359375 91.996094 183.113281 94.242188 L 135.589844 141.390625 L 77.964844 84.136719 C 82.453125 78.523438 87.320312 73.285156 92.558594 68.796875 Z M 208.933594 335.222656 L 30.066406 335.222656 L 30.066406 234.9375 L 208.933594 234.9375 Z M 214.546875 223.710938 L 74.597656 223.710938 C 54.015625 194.898438 48.402344 158.976562 57.007812 126.421875 L 131.476562 200.886719 C 132.597656 202.007812 134.09375 202.382812 135.589844 202.382812 C 137.089844 202.382812 138.585938 202.007812 139.707031 200.886719 L 187.230469 153.738281 L 217.542969 184.046875 C 219.785156 186.292969 223.15625 186.292969 225.398438 184.046875 L 283.402344 126.421875 C 294.628906 169.078125 281.15625 214.359375 247.851562 243.917969 C 239.621094 251.402344 230.265625 257.390625 220.535156 261.878906 L 220.535156 229.699219 C 220.160156 226.332031 217.542969 223.710938 214.546875 223.710938 Z M 337.660156 345.324219 C 329.054688 352.808594 315.957031 352.0625 308.472656 343.453125 L 266.5625 295.933594 C 265.4375 294.808594 265.066406 293.3125 265.066406 291.816406 C 265.066406 290.320312 265.8125 288.824219 266.9375 288.074219 L 289.386719 268.242188 C 290.511719 267.492188 291.632812 266.746094 293.128906 266.746094 C 293.128906 266.746094 293.503906 266.746094 293.503906 266.746094 C 295 266.746094 296.5 267.492188 297.246094 268.617188 L 339.15625 316.136719 C 342.898438 320.253906 344.394531 325.492188 344.394531 331.105469 C 344.023438 336.71875 341.402344 341.582031 337.660156 345.324219 Z M 337.660156 345.324219 " fill-opacity="1" fill-rule="nonzero"/></g><path fill="#000000" d="M 45.035156 271.984375 C 45.035156 282.460938 53.640625 290.691406 63.746094 290.691406 L 66.738281 290.691406 C 70.855469 290.691406 74.222656 294.0625 74.222656 298.175781 C 74.222656 302.292969 70.855469 305.660156 66.738281 305.660156 L 50.648438 305.660156 C 47.652344 305.660156 45.035156 308.28125 45.035156 311.273438 C 45.035156 314.269531 47.652344 316.886719 50.648438 316.886719 L 66.738281 316.886719 C 77.214844 316.886719 85.449219 308.65625 85.449219 298.175781 C 85.449219 287.699219 76.839844 279.46875 66.738281 279.46875 L 63.746094 279.46875 C 59.628906 279.46875 56.261719 276.101562 56.261719 271.984375 C 56.261719 267.867188 59.628906 264.5 63.746094 264.5 L 79.835938 264.5 C 82.828125 264.5 85.449219 261.878906 85.449219 258.886719 C 85.449219 255.894531 82.828125 253.273438 79.835938 253.273438 L 63.746094 253.273438 C 53.640625 253.273438 45.035156 261.507812 45.035156 271.984375 Z M 45.035156 271.984375 " fill-opacity="1" fill-rule="nonzero"/><path fill="#000000" d="M 104.90625 316.886719 L 134.09375 316.886719 C 137.089844 316.886719 139.707031 314.269531 139.707031 311.273438 C 139.707031 308.28125 137.089844 305.660156 134.09375 305.660156 L 110.519531 305.660156 L 110.519531 290.691406 L 134.09375 290.691406 C 137.089844 290.691406 139.707031 288.074219 139.707031 285.082031 C 139.707031 282.085938 137.089844 279.46875 134.09375 279.46875 L 110.519531 279.46875 L 110.519531 264.5 L 134.09375 264.5 C 137.089844 264.5 139.707031 261.878906 139.707031 258.886719 C 139.707031 255.894531 137.089844 253.273438 134.09375 253.273438 L 104.90625 253.273438 C 101.914062 253.273438 99.292969 255.894531 99.292969 258.886719 L 99.292969 311.273438 C 99.292969 314.269531 101.914062 316.886719 104.90625 316.886719 Z M 104.90625 316.886719 " fill-opacity="1" fill-rule="nonzero"/><path fill="#000000" d="M 173.757812 316.886719 C 184.984375 316.886719 193.964844 307.90625 193.964844 296.679688 L 193.964844 273.105469 C 193.964844 261.878906 184.984375 252.898438 173.757812 252.898438 C 162.535156 252.898438 153.554688 261.878906 153.554688 273.105469 L 153.554688 296.679688 C 153.554688 307.90625 162.535156 316.886719 173.757812 316.886719 Z M 164.777344 273.480469 C 164.777344 268.617188 168.894531 264.5 173.757812 264.5 C 178.625 264.5 182.742188 268.617188 182.742188 273.480469 L 182.742188 297.054688 C 182.742188 301.917969 178.625 306.035156 173.757812 306.035156 C 168.894531 306.035156 164.777344 301.917969 164.777344 297.054688 Z M 164.777344 273.480469 " fill-opacity="1" fill-rule="nonzero"/></svg>