<svg xmlns="http://www.w3.org/2000/svg" xmlns:xlink="http://www.w3.org/1999/xlink" width="500" zoomAndPan="magnify" viewBox="0 0 375 374.999991" height="500" preserveAspectRatio="xMidYMid meet" version="1.0"><defs><clipPath id="id1"><path d="M 14.027344 285 L 361.277344 285 L 361.277344 330.707031 L 14.027344 330.707031 Z M 14.027344 285 " clip-rule="nonzero"/></clipPath><clipPath id="id2"><path d="M 78 37.5 L 297 37.5 L 297 278 L 78 278 Z M 78 37.5 " clip-rule="nonzero"/></clipPath></defs><rect x="-37.5" width="450" fill="#ffffff" y="-37.499999" height="449.999989" fill-opacity="1"/><rect x="-37.5" width="450" fill="#ffffff" y="-37.499999" height="449.999989" fill-opacity="1"/><rect x="-37.5" width="450" fill="#ffffff" y="-37.499999" height="449.999989" fill-opacity="1"/><g clip-path="url(#id1)"><path fill="#000000" d="M 18.894531 285.867188 L 356.414062 285.867188 C 359.035156 285.867188 361.160156 287.988281 361.160156 290.605469 L 361.160156 292.167969 C 361.160156 302.777344 356.8125 312.425781 349.816406 319.414062 C 342.816406 326.402344 333.15625 330.742188 322.527344 330.742188 L 52.78125 330.742188 C 42.152344 330.742188 32.492188 326.402344 25.492188 319.414062 C 18.492188 312.425781 14.148438 302.777344 14.148438 292.167969 L 14.148438 290.605469 C 14.148438 287.988281 16.273438 285.867188 18.894531 285.867188 Z M 351.496094 295.34375 L 23.8125 295.34375 C 24.554688 302.082031 27.628906 308.148438 32.199219 312.714844 C 37.484375 317.992188 44.769531 321.265625 52.78125 321.265625 L 322.527344 321.265625 C 330.535156 321.265625 337.824219 317.992188 343.105469 312.714844 C 347.679688 308.148438 350.753906 302.082031 351.496094 295.34375 Z M 351.496094 295.34375 " fill-opacity="1" fill-rule="nonzero"/></g><path fill="#000000" d="M 334.359375 290.605469 C 334.359375 293.222656 336.484375 295.34375 339.105469 295.34375 C 341.726562 295.34375 343.847656 293.222656 343.847656 290.605469 L 343.847656 107.394531 C 343.847656 102.296875 341.757812 97.660156 338.390625 94.296875 L 338.390625 94.277344 L 338.347656 94.234375 C 334.984375 90.898438 330.351562 88.828125 325.257812 88.828125 L 293.507812 88.828125 C 290.886719 88.828125 288.761719 90.949219 288.761719 93.566406 C 288.761719 96.183594 290.886719 98.304688 293.507812 98.304688 L 325.257812 98.304688 C 327.746094 98.304688 330.015625 99.320312 331.660156 100.957031 L 331.683594 100.976562 L 331.691406 100.96875 C 333.339844 102.617188 334.359375 104.890625 334.359375 107.394531 Z M 83.121094 98.304688 C 85.742188 98.304688 87.867188 96.183594 87.867188 93.566406 C 87.867188 90.949219 85.742188 88.828125 83.121094 88.828125 L 50.046875 88.828125 C 44.929688 88.828125 40.28125 90.917969 36.914062 94.277344 C 36.816406 94.378906 36.722656 94.480469 36.632812 94.585938 C 33.433594 97.921875 31.457031 102.441406 31.457031 107.394531 L 31.457031 290.605469 C 31.457031 293.222656 33.582031 295.34375 36.203125 295.34375 C 38.820312 295.34375 40.945312 293.222656 40.945312 290.605469 L 40.945312 107.394531 C 40.945312 104.996094 41.886719 102.804688 43.414062 101.175781 C 43.484375 101.113281 43.554688 101.046875 43.625 100.976562 L 43.621094 100.976562 C 45.273438 99.328125 47.550781 98.304688 50.046875 98.304688 Z M 83.121094 98.304688 " fill-opacity="1" fill-rule="nonzero"/><path fill="#000000" d="M 233.074219 290.605469 C 233.074219 287.988281 230.949219 285.867188 228.328125 285.867188 C 225.710938 285.867188 223.585938 287.988281 223.585938 290.605469 C 223.585938 293.128906 222.546875 295.429688 220.875 297.097656 L 220.875 297.09375 C 220.804688 297.164062 220.738281 297.238281 220.675781 297.308594 C 219.035156 298.851562 216.816406 299.800781 214.378906 299.800781 L 160.929688 299.800781 C 158.402344 299.800781 156.097656 298.761719 154.429688 297.097656 C 152.761719 295.429688 151.722656 293.128906 151.722656 290.605469 C 151.722656 287.988281 149.597656 285.867188 146.976562 285.867188 C 144.355469 285.867188 142.234375 287.988281 142.234375 290.605469 C 142.234375 295.746094 144.335938 300.414062 147.722656 303.792969 C 151.109375 307.175781 155.785156 309.277344 160.929688 309.277344 L 214.378906 309.277344 C 219.355469 309.277344 223.90625 307.292969 227.273438 304.082031 C 227.378906 303.992188 227.484375 303.894531 227.585938 303.796875 L 227.585938 303.792969 C 230.972656 300.414062 233.074219 295.746094 233.074219 290.605469 Z M 233.074219 290.605469 " fill-opacity="1" fill-rule="nonzero"/><path fill="#000000" d="M 326.953125 302.378906 C 330.214844 302.378906 332.886719 305.046875 332.886719 308.304688 C 332.886719 311.5625 330.214844 314.230469 326.953125 314.230469 C 323.6875 314.230469 321.019531 311.5625 321.019531 308.304688 C 321.019531 305.046875 323.6875 302.378906 326.953125 302.378906 Z M 326.953125 302.378906 " fill-opacity="1" fill-rule="evenodd"/><path fill="#000000" d="M 303.464844 302.378906 L 303.46875 302.378906 C 306.730469 302.378906 309.402344 305.046875 309.402344 308.304688 C 309.402344 311.5625 306.730469 314.230469 303.46875 314.230469 L 303.464844 314.230469 C 300.203125 314.230469 297.535156 311.5625 297.535156 308.304688 C 297.535156 305.046875 300.203125 302.378906 303.464844 302.378906 Z M 303.464844 302.378906 " fill-opacity="1" fill-rule="evenodd"/><path fill="#000000" d="M 279.980469 302.378906 L 279.984375 302.378906 C 283.246094 302.378906 285.914062 305.046875 285.914062 308.304688 C 285.914062 311.5625 283.246094 314.230469 279.984375 314.230469 L 279.980469 314.230469 C 276.71875 314.230469 274.046875 311.5625 274.046875 308.304688 C 274.046875 305.046875 276.71875 302.378906 279.980469 302.378906 Z M 279.980469 302.378906 " fill-opacity="1" fill-rule="evenodd"/><g clip-path="url(#id2)"><path fill="#000000" d="M 96.765625 37.488281 L 278.539062 37.488281 C 283.578125 37.488281 288.152344 39.542969 291.46875 42.851562 C 291.570312 42.953125 291.664062 43.058594 291.753906 43.164062 C 294.902344 46.457031 296.839844 50.902344 296.839844 55.761719 L 296.839844 259.058594 C 296.839844 264.089844 294.78125 268.660156 291.46875 271.96875 C 288.152344 275.277344 283.578125 277.332031 278.539062 277.332031 L 96.765625 277.332031 C 91.726562 277.332031 87.152344 275.277344 83.835938 271.96875 C 80.523438 268.660156 78.464844 264.089844 78.464844 259.058594 L 78.464844 55.761719 C 78.464844 45.710938 86.699219 37.488281 96.765625 37.488281 Z M 278.539062 46.964844 L 96.765625 46.964844 C 91.917969 46.964844 87.953125 50.925781 87.953125 55.761719 L 87.953125 259.058594 C 87.953125 261.472656 88.949219 263.675781 90.546875 265.269531 C 92.144531 266.867188 94.347656 267.855469 96.765625 267.855469 L 278.539062 267.855469 C 280.960938 267.855469 283.160156 266.867188 284.761719 265.269531 C 286.359375 263.675781 287.351562 261.472656 287.351562 259.058594 L 287.351562 55.761719 C 287.351562 53.4375 286.445312 51.320312 284.972656 49.753906 C 284.902344 49.691406 284.828125 49.625 284.757812 49.554688 L 284.761719 49.550781 C 283.160156 47.957031 280.960938 46.964844 278.539062 46.964844 Z M 278.539062 46.964844 " fill-opacity="1" fill-rule="nonzero"/></g><path fill="#000000" d="M 135.714844 106.074219 L 234.480469 106.074219 C 237.101562 106.074219 239.226562 108.195312 239.226562 110.808594 L 239.226562 117.691406 L 246.117188 117.691406 C 248.738281 117.691406 250.863281 119.8125 250.863281 122.429688 L 250.863281 188.179688 C 250.863281 190.796875 248.738281 192.917969 246.117188 192.917969 L 239.226562 192.917969 L 239.226562 199.800781 C 239.226562 202.417969 237.101562 204.539062 234.480469 204.539062 L 135.714844 204.539062 C 133.09375 204.539062 130.96875 202.417969 130.96875 199.800781 L 130.96875 192.917969 L 124.078125 192.917969 C 121.460938 192.917969 119.335938 190.796875 119.335938 188.179688 L 119.335938 122.429688 C 119.335938 119.8125 121.460938 117.691406 124.078125 117.691406 L 130.96875 117.691406 L 130.96875 110.808594 C 130.96875 108.195312 133.09375 106.074219 135.714844 106.074219 Z M 229.738281 115.546875 L 140.460938 115.546875 L 140.460938 122.429688 C 140.460938 125.046875 138.335938 127.167969 135.714844 127.167969 L 128.824219 127.167969 L 128.824219 183.441406 L 135.714844 183.441406 C 138.335938 183.441406 140.460938 185.5625 140.460938 188.179688 L 140.460938 195.0625 L 229.738281 195.0625 L 229.738281 188.179688 C 229.738281 185.5625 231.863281 183.441406 234.480469 183.441406 L 241.375 183.441406 L 241.375 127.167969 L 234.480469 127.167969 C 231.863281 127.167969 229.738281 125.046875 229.738281 122.429688 Z M 229.738281 115.546875 " fill-opacity="1" fill-rule="nonzero"/><path fill="#000000" d="M 112.441406 94.453125 L 135.714844 94.453125 C 138.335938 94.453125 140.460938 96.574219 140.460938 99.191406 L 140.460938 122.429688 C 140.460938 125.046875 138.335938 127.167969 135.714844 127.167969 L 112.441406 127.167969 C 109.824219 127.167969 107.699219 125.046875 107.699219 122.429688 L 107.699219 99.191406 C 107.699219 96.574219 109.824219 94.453125 112.441406 94.453125 Z M 130.96875 103.925781 L 117.1875 103.925781 L 117.1875 117.691406 L 130.96875 117.691406 Z M 130.96875 103.925781 " fill-opacity="1" fill-rule="nonzero"/><path fill="#000000" d="M 234.480469 94.453125 L 257.753906 94.453125 C 260.375 94.453125 262.5 96.574219 262.5 99.191406 L 262.5 122.429688 C 262.5 125.046875 260.375 127.167969 257.753906 127.167969 L 234.480469 127.167969 C 231.863281 127.167969 229.738281 125.046875 229.738281 122.429688 L 229.738281 99.191406 C 229.738281 96.574219 231.863281 94.453125 234.480469 94.453125 Z M 253.007812 103.925781 L 239.226562 103.925781 L 239.226562 117.691406 L 253.007812 117.691406 Z M 253.007812 103.925781 " fill-opacity="1" fill-rule="nonzero"/><path fill="#000000" d="M 234.480469 183.441406 L 257.753906 183.441406 C 260.375 183.441406 262.5 185.5625 262.5 188.179688 L 262.5 211.417969 C 262.5 214.035156 260.375 216.15625 257.753906 216.15625 L 234.480469 216.15625 C 231.863281 216.15625 229.738281 214.035156 229.738281 211.417969 L 229.738281 188.179688 C 229.738281 185.5625 231.863281 183.441406 234.480469 183.441406 Z M 253.007812 192.917969 L 239.226562 192.917969 L 239.226562 206.679688 L 253.007812 206.679688 Z M 253.007812 192.917969 " fill-opacity="1" fill-rule="nonzero"/><path fill="#000000" d="M 112.441406 183.441406 L 135.714844 183.441406 C 138.335938 183.441406 140.460938 185.5625 140.460938 188.179688 L 140.460938 211.417969 C 140.460938 214.035156 138.335938 216.15625 135.714844 216.15625 L 112.441406 216.15625 C 109.824219 216.15625 107.699219 214.035156 107.699219 211.417969 L 107.699219 188.179688 C 107.699219 185.5625 109.824219 183.441406 112.441406 183.441406 Z M 130.96875 192.917969 L 117.1875 192.917969 L 117.1875 206.679688 L 130.96875 206.679688 Z M 130.96875 192.917969 " fill-opacity="1" fill-rule="nonzero"/><path fill="#000000" d="M 83.210938 73.765625 C 80.589844 73.765625 78.464844 75.886719 78.464844 78.503906 C 78.464844 81.117188 80.589844 83.238281 83.210938 83.238281 L 292.097656 83.238281 C 294.714844 83.238281 296.839844 81.117188 296.839844 78.503906 C 296.839844 75.886719 294.714844 73.765625 292.097656 73.765625 Z M 83.210938 73.765625 " fill-opacity="1" fill-rule="nonzero"/><path fill="#000000" d="M 154.878906 131.519531 C 152.617188 130.210938 149.71875 130.980469 148.410156 133.238281 C 147.101562 135.496094 147.871094 138.390625 150.132812 139.699219 L 220.429688 180.222656 C 222.691406 181.53125 225.585938 180.761719 226.894531 178.503906 C 228.203125 176.246094 227.433594 173.351562 225.171875 172.046875 Z M 154.878906 131.519531 " fill-opacity="1" fill-rule="nonzero"/><path fill="#000000" d="M 225.171875 139.699219 C 227.433594 138.390625 228.203125 135.496094 226.894531 133.238281 C 225.585938 130.980469 222.691406 130.210938 220.429688 131.519531 L 150.132812 172.046875 C 147.871094 173.351562 147.101562 176.246094 148.410156 178.503906 C 149.71875 180.761719 152.617188 181.53125 154.878906 180.222656 Z M 225.171875 139.699219 " fill-opacity="1" fill-rule="nonzero"/><path fill="#000000" d="M 138.886719 227.371094 C 136.269531 227.371094 134.144531 229.492188 134.144531 232.109375 C 134.144531 234.722656 136.269531 236.847656 138.886719 236.847656 L 261.210938 236.847656 C 263.832031 236.847656 265.957031 234.722656 265.957031 232.109375 C 265.957031 229.492188 263.832031 227.371094 261.210938 227.371094 Z M 138.886719 227.371094 " fill-opacity="1" fill-rule="nonzero"/><path fill="#000000" d="M 138.886719 250.324219 C 136.269531 250.324219 134.144531 252.449219 134.144531 255.0625 C 134.144531 257.679688 136.269531 259.800781 138.886719 259.800781 L 261.210938 259.800781 C 263.832031 259.800781 265.957031 257.679688 265.957031 255.0625 C 265.957031 252.449219 263.832031 250.324219 261.210938 250.324219 Z M 138.886719 250.324219 " fill-opacity="1" fill-rule="nonzero"/><path fill="#000000" d="M 124.300781 236.847656 C 126.921875 236.847656 129.046875 234.722656 129.046875 232.109375 C 129.046875 229.492188 126.921875 227.371094 124.300781 227.371094 L 114.09375 227.371094 C 111.476562 227.371094 109.351562 229.492188 109.351562 232.109375 C 109.351562 234.722656 111.476562 236.847656 114.09375 236.847656 Z M 124.300781 236.847656 " fill-opacity="1" fill-rule="nonzero"/><path fill="#000000" d="M 124.300781 259.800781 C 126.921875 259.800781 129.046875 257.679688 129.046875 255.0625 C 129.046875 252.449219 126.921875 250.324219 124.300781 250.324219 L 114.09375 250.324219 C 111.476562 250.324219 109.351562 252.449219 109.351562 255.0625 C 109.351562 257.679688 111.476562 259.800781 114.09375 259.800781 Z M 124.300781 259.800781 " fill-opacity="1" fill-rule="nonzero"/><path fill="#000000" d="M 149.582031 55.835938 C 146.960938 55.835938 144.839844 57.957031 144.839844 60.570312 C 144.839844 63.1875 146.960938 65.308594 149.582031 65.308594 L 271.90625 65.308594 C 274.523438 65.308594 276.648438 63.1875 276.648438 60.570312 C 276.648438 57.957031 274.523438 55.835938 271.90625 55.835938 Z M 149.582031 55.835938 " fill-opacity="1" fill-rule="nonzero"/><path fill="#000000" d="M 131.832031 65.308594 C 134.453125 65.308594 136.578125 63.1875 136.578125 60.570312 C 136.578125 57.957031 134.453125 55.835938 131.832031 55.835938 L 126.492188 55.835938 C 123.871094 55.835938 121.746094 57.957031 121.746094 60.570312 C 121.746094 63.1875 123.871094 65.308594 126.492188 65.308594 Z M 131.832031 65.308594 " fill-opacity="1" fill-rule="nonzero"/><path fill="#000000" d="M 108.742188 65.308594 C 111.363281 65.308594 113.488281 63.1875 113.488281 60.570312 C 113.488281 57.957031 111.363281 55.835938 108.742188 55.835938 L 103.402344 55.835938 C 100.78125 55.835938 98.65625 57.957031 98.65625 60.570312 C 98.65625 63.1875 100.78125 65.308594 103.402344 65.308594 Z M 108.742188 65.308594 " fill-opacity="1" fill-rule="nonzero"/></svg>